<svg width="30" height="30" viewBox="0 0 30 30" fill="none" xmlns="http://www.w3.org/2000/svg">
<path d="M0 0H30V30H0V0Z" fill="#BCDCC4"/>
<path d="M6 19.158V10H8.2794V13.906L11.6785 10H14.3844L10.9053 13.893L14.651 19.158H11.9051L9.33241 15.532L8.2794 16.665V19.158H6ZM17.7024 17.119H22.1148V19.158H15.4364V10H17.7024V17.119Z" fill="#151515"/>
<path d="M24.4958 19.4902C25.3818 19.4902 26.1218 18.7302 26.1218 17.7922C26.1218 16.9182 25.3818 16.1582 24.4958 16.1582C23.5308 16.1582 22.7898 16.9182 22.7898 17.7922C22.7898 18.7302 23.5308 19.4902 24.4958 19.4902Z" fill="#A882DD"/>
</svg>
