<svg width="462" height="304" viewBox="0 0 462 304" fill="none" xmlns="http://www.w3.org/2000/svg">
<rect width="462" height="304" fill="white"/>
<path d="M51.1169 65V55.8424H53.3964V59.748L56.7955 55.8424H59.5014L56.0223 59.7347L59.768 65H57.0221L54.4494 61.3743L53.3964 62.5073V65H51.1169ZM64.8007 65.16C62.1347 65.16 59.882 62.9872 59.882 60.4145C59.882 57.8419 62.1347 55.6824 64.8007 55.6824C67.48 55.6824 69.7327 57.8419 69.7327 60.4145C69.7327 62.9872 67.48 65.16 64.8007 65.16ZM64.8007 63.0938C66.2003 63.0938 67.3867 61.8675 67.3867 60.4145C67.3867 58.9749 66.2003 57.7486 64.8007 57.7486C63.401 57.7486 62.2147 58.9749 62.2147 60.4145C62.2147 61.8675 63.401 63.0938 64.8007 63.0938ZM79.07 65H76.484L74.4712 62.1341H73.3515V65H71.0721V55.8424H75.3243C77.3371 55.8424 78.8034 57.1354 78.8034 58.9882C78.8034 60.3212 78.0436 61.3743 76.8572 61.8542L79.07 65ZM73.3515 57.9218V60.0546H75.111C75.8975 60.0546 76.4573 59.6281 76.4573 58.9882C76.4573 58.3484 75.8975 57.9218 75.111 57.9218H73.3515ZM82.5421 65V57.8819H79.7562V55.8424H87.5941V57.8819H84.8215V65H82.5421ZM91.0412 62.9605H95.4534V65H88.7752V55.8424H91.0412V62.9605ZM103.143 65L102.61 63.667H98.9841L98.4509 65H95.8915L99.5173 55.8424H102.077L105.702 65H103.143ZM99.6905 61.8808H101.903L100.797 59.0682L99.6905 61.8808ZM106.689 65V55.8424H111.474C113.167 55.8424 114.34 56.8155 114.34 58.1485C114.34 59.0549 113.874 59.788 113.074 60.1879C114.127 60.6545 114.753 61.5209 114.753 62.5206C114.753 63.9869 113.46 65 111.647 65H106.689ZM108.955 59.4681H110.914C111.541 59.4681 111.994 59.1082 111.994 58.615C111.994 58.1218 111.541 57.7752 110.914 57.7752H108.955V59.4681ZM108.955 63.0672H111.261C111.927 63.0672 112.407 62.6806 112.407 62.1474C112.407 61.6142 111.927 61.2276 111.261 61.2276H108.955V63.0672ZM116.087 65V55.8424H120.873C122.566 55.8424 123.739 56.8155 123.739 58.1485C123.739 59.0549 123.272 59.788 122.472 60.1879C123.525 60.6545 124.152 61.5209 124.152 62.5206C124.152 63.9869 122.859 65 121.046 65H116.087ZM118.353 59.4681H120.313C120.939 59.4681 121.393 59.1082 121.393 58.615C121.393 58.1218 120.939 57.7752 120.313 57.7752H118.353V59.4681ZM118.353 63.0672H120.659C121.326 63.0672 121.806 62.6806 121.806 62.1474C121.806 61.6142 121.326 61.2276 120.659 61.2276H118.353V63.0672ZM132.657 57.8819H127.725V59.3081H132.204V61.3476H127.725V62.9605H132.657V65H125.446V55.8424H132.657V57.8819ZM136.356 65V57.8819H133.57V55.8424H141.408V57.8819H138.636V65H136.356Z" fill="#151515"/>
<path d="M88.2102 149V139.842H90.4896V143.748L93.8887 139.842H96.5946L93.1155 143.735L96.8612 149H94.1153L91.5426 145.374L90.4896 146.507V149H88.2102ZM99.9126 146.961H104.325V149H97.6466V139.842H99.9126V146.961Z" fill="#151515"/>
<path d="M106.706 149.332C107.592 149.332 108.332 148.572 108.332 147.634C108.332 146.76 107.592 146 106.706 146C105.741 146 105 146.76 105 147.634C105 148.572 105.741 149.332 106.706 149.332Z" fill="#A882DD"/>
</svg>