<svg width="129" height="122" viewBox="0 0 129 122" fill="none" xmlns="http://www.w3.org/2000/svg">
<g clip-path="url(#clip0_235_2)">
<mask id="mask0_235_2" style="mask-type:luminance" maskUnits="userSpaceOnUse" x="0" y="0" width="129" height="122">
<path d="M64.4968 0.626953C28.8941 0.626953 0.0332031 27.6551 0.0332031 60.9971C0.0332031 94.339 28.8941 121.367 64.4968 121.367C100.1 121.367 128.96 94.339 128.96 60.9971C128.96 27.6551 100.1 0.626953 64.4968 0.626953Z" fill="white"/>
</mask>
<g mask="url(#mask0_235_2)">
<path d="M141.853 -11.4473H-12.8594V133.441H141.853V-11.4473Z" fill="white"/>
<path d="M64.4969 0.626953C28.8941 0.626953 0.0332031 27.6551 0.0332031 60.9971C0.0332031 94.339 28.8941 121.367 64.4969 121.367C100.1 121.367 128.96 94.339 128.96 60.9971C128.96 27.6551 100.1 0.626953 64.4969 0.626953Z" stroke="black" stroke-width="5.75175"/>
<g clip-path="url(#clip1_235_2)">
<mask id="mask1_235_2" style="mask-type:luminance" maskUnits="userSpaceOnUse" x="0" y="0" width="129" height="122">
<path d="M64.4968 0.626953C28.8941 0.626953 0.0332031 27.6551 0.0332031 60.9971C0.0332031 94.339 28.8941 121.367 64.4968 121.367C100.1 121.367 128.96 94.339 128.96 60.9971C128.96 27.6551 100.1 0.626953 64.4968 0.626953Z" fill="white"/>
</mask>
<g mask="url(#mask1_235_2)">
<path d="M141.853 -11.4473H-12.8594V133.441H141.853V-11.4473Z" fill="white"/>
<path d="M64.4969 0.626953C28.8941 0.626953 0.0332031 27.6551 0.0332031 60.9971C0.0332031 94.339 28.8941 121.367 64.4969 121.367C100.1 121.367 128.96 94.339 128.96 60.9971C128.96 27.6551 100.1 0.626953 64.4969 0.626953Z" stroke="black" stroke-width="5.75175"/>
</g>
</g>
</g>
<mask id="mask2_235_2" style="mask-type:luminance" maskUnits="userSpaceOnUse" x="25" y="24" width="79" height="74">
<path d="M25.5156 24.4922H103.479V97.5048H25.5156V24.4922Z" fill="white"/>
</mask>
<g mask="url(#mask2_235_2)">
<mask id="mask3_235_2" style="mask-type:luminance" maskUnits="userSpaceOnUse" x="25" y="24" width="79" height="74">
<path d="M64.4973 24.4941C42.9673 24.4941 25.5156 40.8381 25.5156 61.0004C25.5156 81.1628 42.9678 97.5068 64.4973 97.5068C86.0268 97.5068 103.479 81.1628 103.479 61.0005C103.479 40.8381 86.0268 24.4941 64.4973 24.4941Z" fill="white"/>
</mask>
<g mask="url(#mask3_235_2)">
<path d="M25.5156 24.4941H103.479V97.5068H25.5156V24.4941Z" fill="white"/>
</g>
</g>
<mask id="mask4_235_2" style="mask-type:luminance" maskUnits="userSpaceOnUse" x="27" y="26" width="75" height="70">
<path d="M27.3613 26.2188H101.634V95.7751H27.3613V26.2188Z" fill="white"/>
</mask>
<g mask="url(#mask4_235_2)">
<mask id="mask5_235_2" style="mask-type:luminance" maskUnits="userSpaceOnUse" x="27" y="26" width="75" height="70">
<path d="M64.4978 26.2188C43.9876 26.2188 27.3613 41.7892 27.3613 60.997C27.3613 80.2048 43.9875 95.7751 64.4978 95.7751C85.0081 95.7751 101.634 80.2048 101.634 60.997C101.634 41.7892 85.008 26.2188 64.4978 26.2188Z" fill="white"/>
</mask>
<g mask="url(#mask5_235_2)">
<path d="M27.3613 26.2188H101.634V95.7751H27.3613V26.2188Z" fill="#ED1E24"/>
</g>
</g>
<mask id="mask6_235_2" style="mask-type:luminance" maskUnits="userSpaceOnUse" x="27" y="26" width="75" height="70">
<path d="M27.3613 26.2188H101.623V95.765H27.3613V26.2188Z" fill="white"/>
</mask>
<g mask="url(#mask6_235_2)">
<mask id="mask7_235_2" style="mask-type:luminance" maskUnits="userSpaceOnUse" x="27" y="26" width="75" height="70">
<path d="M64.4964 26.2188C43.9876 26.2188 27.3613 41.7892 27.3613 60.9957C27.3613 80.2023 43.9875 95.7726 64.4964 95.7726C85.0054 95.7726 101.632 80.2023 101.632 60.9957C101.632 41.7892 85.0053 26.2188 64.4964 26.2188Z" fill="white"/>
</mask>
<g mask="url(#mask7_235_2)">
<path d="M64.4965 26.2188C43.9876 26.2188 27.3613 41.7893 27.3613 60.9958C27.3613 80.2024 43.9876 95.7726 64.4965 95.7726C85.0053 95.7726 101.632 80.2022 101.632 60.9958C101.632 41.7893 85.0054 26.2188 64.4965 26.2188Z" stroke="#ED1E24" stroke-width="1.23252"/>
</g>
</g>
<path d="M17.7975 32.3926L13.9619 38.6609L23.4367 43.7459L24.5648 41.9008L20.6393 39.7955L23.003 35.9318L21.2463 34.9885L18.8826 38.8522L16.8466 37.7592L19.5541 33.3358L17.7975 32.3926Z" fill="black"/>
<path d="M32.7429 32.2241C34.6123 30.4608 34.8541 28.3378 33.2103 26.5657L31.697 27.9919C32.3191 28.7931 32.4747 29.8684 31.4486 30.8368C30.1083 32.1008 28.2737 31.7713 26.642 30.2532C25.0625 28.7869 24.7201 27.0914 26.0604 25.8274C27.0112 24.9307 28.107 24.8967 29.0526 25.5331L30.5769 24.0955C28.7383 22.6505 26.4727 22.8303 24.5925 24.6037C22.5391 26.5406 22.5391 29.4345 25.0424 31.7625C27.5565 34.1006 30.6911 34.161 32.7429 32.2241Z" fill="black"/>
<path d="M48.1179 18.0038L48.3879 20.0791L47.2369 18.2982L43.4793 13.1793L40.4736 14.1829L44.144 23.8157L46.1235 23.1541L44.747 19.5421L42.703 14.9023L44.4881 17.4932L48.1166 22.4876L50.2976 21.7594L49.7386 15.8456L49.3373 12.7001L50.8858 17.4904L52.2624 21.1028L54.2553 20.4362L50.5863 10.8047L47.5378 11.8235L48.1179 18.0038Z" fill="black"/>
<path d="M61.9104 8.53564L61.8435 6.69794L59.6813 6.76709L59.7499 8.60462L61.9104 8.53564ZM65.1443 8.43128L65.0772 6.59375L62.9163 6.6629L62.9833 8.50043L65.1443 8.43128ZM62.8391 20.0173C65.752 19.923 67.972 17.7094 67.8511 14.394C67.7286 11.0925 65.3545 9.12803 62.4424 9.22251C59.5302 9.31699 57.3674 11.4271 57.4882 14.7286C57.6105 18.059 59.9269 20.1103 62.8391 20.0173ZM62.7719 18.1797C60.9786 18.2376 59.8368 16.8226 59.7565 14.6544C59.68 12.5745 60.7168 11.1177 62.5097 11.0599C64.3026 11.002 65.5045 12.3719 65.5812 14.467C65.6617 16.6353 64.5648 18.1218 62.7719 18.1797Z" fill="black"/>
<path d="M76.4173 10.6342L74.2094 10.1387L71.6631 20.0834L79.0453 21.7423L79.518 19.8985L74.3423 18.735L76.4173 10.6342Z" fill="black"/>
<path d="M89.332 14.8736L87.3176 13.8926L82.2812 22.9657L89.0162 26.2458L89.9512 24.5631L85.2293 22.2637L89.332 14.8736Z" fill="black"/>
<path d="M98.8964 34.1592L103.528 24.2472L101.601 22.582L91.3555 27.6443L93.1256 29.1726L95.2059 28.0782L98.1134 30.5912L97.1156 32.6211L98.8964 34.1592ZM98.1672 26.5338L100.987 24.9633L99.5316 27.7126L98.9434 28.9234L96.9249 27.1802L98.1672 26.5338Z" fill="black"/>
<path d="M109.615 39.0163C108.959 39.3861 108.295 39.7747 107.645 40.1562C107.99 39.5777 108.314 38.9941 108.643 38.3904L111.495 33.2371L110.351 31.4512L100.986 36.7122L102.153 38.5347L106.258 36.2296C106.902 35.8687 107.572 35.4913 108.222 35.109C107.867 35.7278 107.512 36.3466 107.164 36.9767L104.379 42.0089L105.522 43.7944L114.886 38.5347L113.719 36.7109L109.615 39.0163Z" fill="black"/>
<path d="M50.7636 106.423L50.0532 107.508L50.2238 106.251L50.5005 102.481L48.6618 101.895L46.5225 107.786L47.7325 108.172L48.5355 105.963L49.4341 103.026L49.2393 104.894L48.9519 108.56L50.2855 108.985L52.4074 105.968L53.4872 104.327L52.2906 107.159L51.4875 109.369L52.7069 109.757L54.8476 103.865L52.9836 103.272L50.7636 106.423Z" fill="black"/>
<path d="M61.3116 111.19L60.0532 104.712L58.4765 104.484L55.1406 110.299L56.5883 110.509L57.241 109.294L59.6212 109.637L59.8549 110.979L61.3116 111.19ZM58.1756 107.571L59.0298 105.882L59.2913 107.732L59.435 108.531L57.7835 108.293L58.1756 107.571Z" fill="black"/>
<path d="M65.1276 105.076L63.747 105.072L63.7295 111.295L68.3494 111.306L68.3521 110.153L65.1142 110.146L65.1276 105.076Z" fill="black"/>
<path d="M73.7783 108.132L73.6924 109.401L73.2156 108.216L71.5772 104.761L69.6611 105.048L70.7082 111.193L71.9705 111.004L71.5783 108.699L70.907 105.711L71.6672 107.446L73.2425 110.813L74.6338 110.606L75.0045 107.01L75.1388 105.087L75.4944 108.113L75.8879 110.418L77.1597 110.227L76.1111 104.082L74.1665 104.374L73.7783 108.132Z" fill="black"/>
<path d="M79.9574 102.326L79.5625 101.27L78.3203 101.677L78.7151 102.733L79.9574 102.326ZM81.8161 101.718L81.4227 100.662L80.1803 101.069L80.5737 102.125L81.8161 101.718ZM82.7146 108.84C84.3879 108.293 85.2515 106.63 84.5397 104.725C83.8319 102.827 82.0726 102.087 80.3992 102.636C78.7258 103.184 77.8755 104.776 78.5835 106.674C79.298 108.588 81.04 109.388 82.7146 108.84ZM82.3198 107.785C81.2896 108.122 80.3522 107.493 79.8875 106.246C79.4417 105.051 79.7627 104.029 80.7927 103.692C81.8228 103.355 82.7857 103.946 83.236 105.151C83.7003 106.398 83.3512 107.446 82.3198 107.785Z" fill="black"/>
<path d="M11.9075 62.3468H13.9113V63.0511H10.457V62.6335L12.0472 61.1695C12.3055 60.9453 12.5394 60.6976 12.7455 60.4301C12.8732 60.2588 12.9423 60.0553 12.9439 59.8465C12.9532 59.6677 12.8877 59.4926 12.7612 59.3584C12.6974 59.2953 12.6196 59.2459 12.5334 59.2138C12.4471 59.1818 12.3543 59.1677 12.2617 59.1727C12.162 59.1665 12.0622 59.1819 11.97 59.2177C11.8777 59.2535 11.7955 59.3086 11.7297 59.3789C11.6075 59.5135 11.5305 59.7165 11.4987 59.9877L11.4933 60.0532H10.5484L10.5591 59.9877C10.6088 59.5123 10.7861 59.1484 11.091 58.896C11.3986 58.642 11.8193 58.5145 12.3533 58.5137C12.8609 58.5137 13.2531 58.6294 13.5297 58.8608C13.6687 58.9772 13.7783 59.121 13.8508 59.2819C13.9233 59.4427 13.9568 59.6166 13.9489 59.7911C13.9481 60.0678 13.8623 60.3385 13.7018 60.5708C13.5366 60.8123 13.2304 61.136 12.7831 61.5418L11.9075 62.3468Z" fill="white"/>
<path d="M16.8367 58.5195C18.0642 58.5195 18.6784 59.2909 18.6793 60.8337C18.6793 62.3731 18.0651 63.1429 16.8367 63.1429C15.6012 63.1429 14.9834 62.3731 14.9834 60.8337C14.9834 59.2918 15.6012 58.5204 16.8367 58.5195ZM16.1921 62.0763C16.3317 62.3455 16.5437 62.4788 16.8313 62.4788C17.1214 62.4788 17.3336 62.3455 17.4705 62.0763C17.6075 61.8071 17.6746 61.3924 17.6746 60.8286C17.6746 60.2626 17.6066 59.8467 17.4705 59.5809C17.3337 59.3169 17.1224 59.1836 16.8367 59.1836C16.6988 59.1803 16.5631 59.2166 16.4478 59.2876C16.3326 59.3587 16.2433 59.4611 16.1921 59.581C16.0551 59.8464 15.9879 60.2627 15.9879 60.8287C15.9879 61.3921 16.0551 61.8084 16.1921 62.0763Z" fill="white"/>
<path d="M112.242 58.207C113.469 58.207 114.084 58.9784 114.085 60.5212C114.085 62.0606 113.47 62.8304 112.242 62.8304C111.006 62.8304 110.389 62.0606 110.389 60.5212C110.389 58.9793 111.006 58.2079 112.242 58.207ZM111.597 61.7638C111.737 62.033 111.949 62.1663 112.237 62.1663C112.527 62.1663 112.739 62.033 112.876 61.7638C113.013 61.4946 113.08 61.0799 113.08 60.5161C113.08 59.9501 113.012 59.5342 112.876 59.2684C112.739 59.0044 112.528 58.8711 112.242 58.8711C112.104 58.8678 111.968 58.9041 111.853 58.9751C111.738 59.0462 111.649 59.1486 111.597 59.2685C111.46 59.5339 111.393 59.9502 111.393 60.5162C111.393 61.0796 111.46 61.4959 111.597 61.7638Z" fill="white"/>
<path d="M116.58 62.0362H118.584V62.7405H115.13V62.323L116.72 60.859C116.978 60.6347 117.212 60.387 117.418 60.1195C117.546 59.9483 117.615 59.7448 117.617 59.5359C117.626 59.3572 117.561 59.1821 117.434 59.0479C117.37 58.9847 117.293 58.9354 117.206 58.9033C117.12 58.8712 117.027 58.8572 116.935 58.8621C116.835 58.856 116.735 58.8714 116.643 58.9071C116.551 58.9429 116.468 58.9981 116.403 59.0684C116.28 59.203 116.203 59.4059 116.172 59.6772L116.166 59.7426H115.221L115.232 59.6772C115.282 59.2018 115.459 58.8378 115.764 58.5854C116.071 58.3314 116.492 58.204 117.026 58.2031C117.534 58.2031 117.926 58.3188 118.203 58.5502C118.342 58.6666 118.451 58.8105 118.524 58.9713C118.596 59.1322 118.63 59.3061 118.622 59.4805C118.621 59.7573 118.535 60.0279 118.375 60.2603C118.209 60.5017 117.903 60.8254 117.456 61.2313L116.58 62.0362Z" fill="white"/>
<path d="M11.8714 66.0128H13.8752V66.7171H10.4209V66.2995L12.011 64.8355C12.2693 64.6113 12.5033 64.3636 12.7094 64.0961C12.8371 63.9248 12.9062 63.7213 12.9078 63.5125C12.9171 63.3337 12.8515 63.1586 12.7251 63.0244C12.6613 62.9613 12.5835 62.9119 12.4972 62.8799C12.4109 62.8478 12.3182 62.8337 12.2255 62.8387C12.1259 62.8325 12.0261 62.8479 11.9338 62.8837C11.8416 62.9195 11.7594 62.9746 11.6936 63.045C11.5714 63.1796 11.4944 63.3825 11.4626 63.6537L11.4572 63.7192H10.5122L10.523 63.6537C10.5727 63.1783 10.75 62.8144 11.0549 62.562C11.3625 62.308 11.7832 62.1805 12.3171 62.1797C12.8248 62.1797 13.2169 62.2954 13.4936 62.5268C13.6325 62.6432 13.7422 62.787 13.8147 62.9479C13.8872 63.1087 13.9207 63.2826 13.9128 63.4571C13.912 63.7338 13.8262 64.0045 13.6656 64.2368C13.5005 64.4783 13.1942 64.802 12.747 65.2078L11.8714 66.0128Z" fill="black"/>
<path d="M16.8006 62.1875C18.0281 62.1875 18.6423 62.9589 18.6432 64.5017C18.6432 66.0411 18.029 66.8108 16.8006 66.8108C15.565 66.8108 14.9473 66.0411 14.9473 64.5017C14.9473 62.9597 15.565 62.1883 16.8006 62.1875ZM16.1559 65.7443C16.2956 66.0134 16.5076 66.1468 16.7952 66.1468C17.0853 66.1468 17.2974 66.0134 17.4344 65.7443C17.5713 65.4751 17.6385 65.0604 17.6385 64.4966C17.6385 63.9306 17.5705 63.5147 17.4344 63.2489C17.2975 62.9849 17.0863 62.8516 16.8006 62.8516C16.6626 62.8482 16.5269 62.8845 16.4117 62.9556C16.2964 63.0266 16.2072 63.129 16.1559 63.249C16.019 63.5144 15.9518 63.9307 15.9518 64.4967C15.9518 65.0601 16.019 65.4764 16.1559 65.7443Z" fill="black"/>
<path d="M112.206 61.875C113.433 61.875 114.048 62.6464 114.048 64.1892C114.048 65.7286 113.434 66.4983 112.206 66.4983C110.97 66.4983 110.353 65.7286 110.353 64.1892C110.353 62.6472 110.97 61.8758 112.206 61.875ZM111.561 65.4318C111.701 65.7009 111.913 65.8343 112.2 65.8343C112.491 65.8343 112.703 65.7009 112.84 65.4318C112.977 65.1626 113.044 64.7479 113.044 64.1841C113.044 63.6181 112.976 63.2022 112.84 62.9364C112.703 62.6724 112.492 62.5391 112.206 62.5391C112.068 62.5357 111.932 62.572 111.817 62.6431C111.702 62.7141 111.612 62.8165 111.561 62.9365C111.424 63.2019 111.357 63.6182 111.357 64.1842C111.357 64.7476 111.424 65.1639 111.561 65.4318Z" fill="black"/>
<path d="M116.542 65.7062H118.546V66.4104H115.092V65.9929L116.682 64.5289C116.94 64.3046 117.174 64.0569 117.38 63.7894C117.508 63.6182 117.577 63.4147 117.579 63.2058C117.588 63.0271 117.522 62.852 117.396 62.7178C117.332 62.6546 117.254 62.6053 117.168 62.5732C117.082 62.5411 116.989 62.5271 116.896 62.5321C116.797 62.5259 116.697 62.5413 116.605 62.5771C116.513 62.6128 116.43 62.668 116.364 62.7383C116.242 62.8729 116.165 63.0758 116.133 63.3471L116.128 63.4125H115.183L115.194 63.3471C115.244 62.8717 115.421 62.5078 115.726 62.2554C116.033 62.0013 116.454 61.8739 116.988 61.873C117.496 61.873 117.888 61.9887 118.165 62.2202C118.303 62.3366 118.413 62.4804 118.486 62.6412C118.558 62.8021 118.592 62.976 118.584 63.1504C118.583 63.4272 118.497 63.6979 118.337 63.9302C118.171 64.1717 117.865 64.4953 117.418 64.9012L116.542 65.7062Z" fill="black"/>
<path d="M69.4295 52.5149C69.2003 52.4905 68.9789 52.4227 68.7785 52.3156C67.8544 51.8166 67.7138 50.5763 67.6443 49.9701C67.5127 48.8074 67.8319 48.1252 67.6443 47.5139C67.5904 47.317 67.5845 47.1112 67.6272 46.9119C67.6543 46.7903 67.6939 46.6231 67.8472 46.5471C67.8996 46.5223 67.9575 46.5094 68.0163 46.5094C68.075 46.5094 68.1329 46.5223 68.1853 46.5471C68.2196 46.5632 68.3305 46.6239 68.4053 46.8637C68.4682 47.0699 68.48 47.2868 68.4395 47.4978C68.3791 47.7748 68.3864 48.2983 68.71 49.3824C69.0589 50.133 69.4241 50.2732 69.6242 50.3019C70.0967 50.3703 70.2563 49.9067 71.3508 49.2878C72.1658 48.8268 72.6887 48.739 72.7383 48.3683C72.7744 48.1015 72.5183 48.034 72.5012 47.6566C72.4787 47.1525 72.9259 46.7683 73.0764 46.6104C73.3712 46.3031 73.7445 46.1942 74.0736 46.0988C74.4045 46.0025 74.8102 45.8852 75.3106 46.0076C75.6898 46.1037 76.0273 46.309 76.2753 46.5944C76.3672 46.7016 76.7549 47.15 76.681 47.7351C76.635 48.1058 76.4249 48.3608 76.2753 48.5431C75.8137 49.1046 75.4224 49.0421 75.2429 49.4939C75.163 49.7348 75.1457 49.9901 75.1925 50.2386C75.2294 50.5214 75.3034 50.5704 75.362 50.8727C75.4016 51.0778 75.4638 51.3953 75.362 51.7288C75.2988 51.9365 75.1167 52.1679 74.7525 52.6323C74.5253 52.9227 74.4541 52.9843 74.3973 53.1549C74.3044 53.4335 74.4036 53.5315 74.3468 53.8202C74.2593 54.266 73.9762 54.272 73.941 54.581C73.9014 54.9246 74.2404 55.0276 74.7029 55.7698C74.9725 56.203 75.1068 56.4199 75.1086 56.7205C75.1113 57.1562 74.8462 57.2077 74.8039 57.7667C74.7826 58.0747 74.8347 58.3832 74.9562 58.6701C75.0843 58.9741 75.1618 58.9411 75.3115 59.2409C75.554 59.7255 75.4043 59.9197 75.6162 60.5243C75.7089 60.7726 75.8279 61.0116 75.9714 61.2377C76.1785 61.5884 76.4161 61.9225 76.6819 62.2366C77.0407 62.6664 77.1291 62.6866 77.5961 63.2354C77.8666 63.5538 78.0036 63.7159 78.1037 63.9008C78.3038 64.2714 78.2488 64.4048 78.4084 64.9942C78.5364 65.467 78.6807 65.9821 79.0684 66.4684C79.255 66.7023 79.5525 66.7394 79.6779 67.0392C79.7391 67.1907 79.7565 67.3547 79.7283 67.5145C79.6941 67.7121 79.5976 67.8388 79.4065 68.0836C79.2741 68.2532 79.127 68.4122 78.9665 68.559C78.8998 68.6952 78.8033 68.8168 78.6833 68.9158C78.5632 69.0149 78.4223 69.0892 78.2696 69.134C77.835 69.2488 77.2932 69.0994 77.1723 68.8123C77.0101 68.4273 77.7584 68.1545 77.9225 67.425C78.0162 67.0088 77.6231 66.3578 76.8342 65.0727C76.1112 63.8949 75.7406 63.3005 75.3115 63.0438C75.1131 62.9256 74.7903 62.7685 74.5334 62.4097C74.3062 62.0922 74.317 61.8786 74.161 61.4902C73.9987 61.0858 73.8608 61.0039 73.383 60.3495C72.5472 59.2071 72.4471 58.741 72.1649 58.7647C71.8638 58.79 71.9206 59.3236 71.2678 59.7314C71.1191 59.8243 70.8847 59.9408 70.5736 60.0962C70.2121 60.276 70.2427 60.2465 70.0904 60.3309C69.6197 60.591 69.6089 60.7218 69.232 60.8975C68.8804 61.0613 68.7596 61.0081 68.7127 61.1102C68.6018 61.3509 69.2393 61.7114 69.9308 62.4257C70.6286 63.1459 70.433 63.2473 71.1488 64.0266C71.9675 64.9174 72.5634 65.1546 72.4688 65.4848C72.4047 65.7077 72.1243 65.6308 71.4193 66.0234C70.7043 66.4211 70.533 66.7546 69.9975 66.7842C69.9019 66.7893 69.544 66.8095 69.4223 66.6254C69.2988 66.438 69.4457 66.0792 69.8262 65.7516C70.2608 65.3699 70.3266 65.0879 70.3022 64.8979C70.213 64.2022 68.8083 63.8721 67.6281 62.9501C67.3874 62.7618 67.1431 62.5389 67.0358 62.4409C66.6409 62.0804 66.4434 61.9005 66.3929 61.7595C66.2766 61.4362 66.5047 61.1719 67.0358 60.3335C67.8075 59.1151 67.6588 59.148 68.0176 58.7326C68.1132 58.622 68.1943 58.5671 68.4819 58.2809C68.7461 58.0183 68.9715 57.7937 69.2185 57.5125C69.3896 57.3258 69.5488 57.1299 69.6955 56.9257C69.9741 56.5145 70.0128 56.1683 70.1318 55.3907C70.396 53.6699 70.5015 53.4597 70.2869 53.1321C70.0816 52.8434 69.7802 52.6264 69.4295 52.5149Z" fill="white" stroke="white" stroke-width="0.821678" stroke-miterlimit="10"/>
<path d="M77.0507 51.2184C77.1588 50.9955 77.1534 50.9499 77.2147 50.911C77.3419 50.8317 77.4519 50.9718 77.707 50.9549C77.9721 50.9372 78.0108 50.7751 78.2696 50.7574C78.4517 50.7447 78.5906 50.8148 78.7384 50.8891C78.8647 50.9524 79.2036 51.1229 79.3245 51.4818C79.377 51.6614 79.377 51.851 79.3245 52.0306C79.2803 52.2417 79.2172 52.5372 78.9728 52.6892C78.7547 52.8251 78.5347 52.7584 78.4571 52.9087C78.4066 53.0058 78.4851 53.0607 78.4337 53.1722C78.3661 53.3182 78.1479 53.4052 77.9649 53.3917C77.7196 53.3731 77.606 53.1789 77.5429 53.2161C77.4672 53.2608 77.6331 53.5386 77.707 53.9185C77.7692 54.2377 77.7386 54.4783 77.6836 54.9064C77.6673 55.0322 77.6691 54.9833 77.496 55.8504C77.4753 55.9542 77.4176 56.2455 77.3554 56.6187C77.2968 56.9717 77.2679 57.1498 77.2851 57.2334C77.3374 57.4867 77.4861 57.545 77.8711 58.0018C78.183 58.3716 78.3381 58.5556 78.3868 58.7482C78.4418 58.966 78.4075 59.2083 78.3399 59.6921C78.2976 59.9961 78.2795 59.9851 78.2696 60.1312C78.2426 60.539 78.3652 60.8472 78.4806 61.141C78.6798 61.6501 79.0603 62.5401 78.9656 62.5899C78.9187 62.6144 78.7817 62.4193 77.9577 61.3968C77.6475 61.0118 77.5141 60.8497 77.3788 60.5702C77.2528 60.3026 77.1584 60.0229 77.0975 59.736C77.0056 59.2809 77.0561 59.2818 76.9569 59.0335C76.8108 58.6688 76.6531 58.646 76.5277 58.2871C76.4565 58.0895 76.4271 57.8807 76.4412 57.6725C76.4799 57.1684 76.7838 57.0747 76.7225 56.6846C76.7026 56.5596 76.6386 56.4254 76.5115 56.1577C76.4324 55.9826 76.3383 55.8138 76.2302 55.6528C76.0986 55.4586 76.0526 55.4384 75.9255 55.2357C75.8047 55.0432 75.7442 54.9469 75.7379 54.8406C75.7262 54.6303 75.8804 54.605 75.9489 54.3356C76.0273 54.0283 75.8606 53.9287 75.9724 53.6771C76.021 53.5673 76.0517 53.5901 76.2536 53.3478C76.3895 53.1791 76.5147 53.0032 76.6287 52.8209C76.8406 52.5009 76.947 52.3413 76.9569 52.294C77.0272 51.9521 76.7775 51.79 76.91 51.4818C76.9416 51.4083 76.9659 51.394 77.0507 51.2184Z" fill="white" stroke="white" stroke-width="0.821678" stroke-miterlimit="10"/>
<path d="M50.9159 47.2791C50.4822 47.2065 50.4353 47.2547 50.1946 47.1888C49.9434 47.1153 49.7127 46.9905 49.5193 46.8232C49.1704 46.5437 48.6078 45.9198 48.8089 45.5871C48.9459 45.36 49.3778 45.3532 49.6717 45.349C50.2776 45.3406 50.4119 45.555 50.9916 45.539C51.2612 45.5314 51.7147 45.5195 51.9058 45.2536C52.0997 44.9842 51.8103 44.7495 51.9563 44.3029C52.1195 43.8022 52.6551 43.5683 52.7182 43.5421C53.0653 43.396 53.3691 43.4349 53.8352 43.4948C54.011 43.5176 54.1968 43.5514 55.1047 43.8275C55.7241 44.0158 56.0342 44.1104 56.3227 44.2075C57.136 44.4819 57.1891 44.5418 57.4398 44.5401C57.9104 44.5376 57.988 44.34 58.5569 44.2075C59.3719 44.0175 60.1067 44.226 60.3086 44.2834C60.9893 44.4768 61.0723 44.7267 61.7557 44.8061C62.0255 44.8328 62.2972 44.839 62.568 44.8247C63.1928 44.7909 63.2145 44.671 63.4822 44.7293C63.9862 44.8399 63.9835 45.224 64.5488 45.3946C64.8301 45.4799 65.0735 45.4562 65.4116 45.3946C65.7796 45.3205 66.126 45.1724 66.4268 44.9606C66.8542 44.6845 66.7884 44.595 67.0868 44.443C67.1256 44.4236 67.7891 44.0985 68.4184 44.3341C68.9143 44.5207 68.826 44.8441 69.3714 45.1084C69.9268 45.3769 70.502 45.2747 70.6409 45.2511C70.786 45.2257 70.8933 45.1911 71.7074 44.7757C72.4323 44.4059 72.7984 44.2176 73.0274 44.0622C73.6026 43.673 73.5223 43.5911 73.9921 43.3015C74.3888 43.0566 74.881 42.7535 75.5149 42.7788C76.0558 42.7999 76.4588 43.0516 76.7843 43.2542C77.3947 43.635 77.328 43.8452 77.8509 44.1104C78.1664 44.2708 78.216 44.2066 79.1708 44.443C80.268 44.7149 80.4411 44.8593 80.5412 44.9657C80.7937 45.235 80.9731 45.6893 80.7955 46.0118C80.6837 46.2153 80.4682 46.2955 80.085 46.4399C79.6459 46.6045 79.5432 46.5699 79.0184 46.7253C78.3242 46.9304 78.1457 47.1213 77.9519 47.0106C77.8779 46.9684 77.8806 46.9228 77.749 46.564C77.6564 46.2777 77.5375 45.9994 77.3938 45.7323C77.1441 45.2794 76.7297 44.9251 76.2253 44.7335C75.8395 44.5782 75.4268 44.4895 75.0073 44.4717C74.588 44.4371 74.2977 44.4126 73.9244 44.508C73.5929 44.5993 73.2834 44.7499 73.0129 44.9513C72.7367 45.1435 72.4858 45.3657 72.2655 45.6133C71.8724 46.0388 71.8995 46.152 71.6561 46.2786C71.4279 46.3977 71.3441 46.3284 70.7382 46.3918C69.9412 46.4737 69.7862 46.6231 69.5752 46.4931C69.33 46.3419 69.4715 46.1005 69.1568 45.691C68.9905 45.4675 68.761 45.2919 68.4942 45.1835C68.2338 45.0703 67.9413 45.039 67.6604 45.0943C67.3795 45.1495 67.1251 45.2883 66.9353 45.49C66.4647 45.9654 66.8172 46.45 66.4349 46.9093C66.1933 47.1998 65.8336 47.2825 65.418 47.3771C64.8563 47.5054 64.4082 47.4303 63.9402 47.3518C63.384 47.258 63.1054 47.2116 62.9151 47.0115C62.6492 46.7329 62.8592 46.4973 62.5788 45.973C62.3877 45.6166 62.1821 45.2333 61.7575 45.1134C61.24 44.9682 60.7414 45.311 60.6909 45.3465C60.2473 45.6622 60.3835 45.978 59.9805 46.2068C59.7776 46.3217 59.4729 46.3234 58.8634 46.3259C58.3756 46.3284 58.1313 46.3293 57.9492 46.2499C57.5768 46.0869 57.6327 45.8649 57.1369 45.4469C56.878 45.2329 56.5873 45.0552 56.274 44.9192C55.9493 44.7747 55.6089 44.6632 55.2588 44.5866C54.7485 44.4565 54.4934 44.3915 54.1418 44.3966C53.809 44.3903 53.479 44.4553 53.1771 44.5866C52.9137 44.7081 52.6803 44.8798 52.4919 45.0906C52.2502 45.3482 52.1402 45.5863 51.9843 45.9223C51.8584 46.1643 51.7645 46.4198 51.7048 46.683C51.6245 47.0782 51.6849 47.2631 51.5416 47.3518C51.4343 47.4176 51.345 47.3492 50.9177 47.2775L50.9159 47.2791Z" fill="white" stroke="white" stroke-width="0.821678" stroke-miterlimit="10"/>
<path d="M47.7168 44.5299C47.3373 44.4598 47.1885 43.7235 47.0821 43.1984C47.0064 42.8235 46.992 42.4258 46.9802 41.6296C46.9646 41.2959 46.9815 40.9616 47.0307 40.6307C47.076 40.3724 47.1438 40.1179 47.2336 39.87C47.3887 39.436 47.4915 39.1498 47.7412 38.8711C48.0468 38.5309 48.183 38.6389 48.503 38.3004C48.7807 38.0065 48.6906 37.9128 49.0611 37.3015C49.3523 36.8211 49.4317 36.8405 49.6706 36.3981C49.9077 35.9599 49.8473 35.9092 50.0258 35.6846C50.3152 35.3207 50.7047 35.162 50.94 35.0666C51.2956 34.9293 51.6731 34.8488 52.0571 34.8285C52.47 34.7938 52.5232 34.8462 52.8694 34.7812C53.1516 34.728 53.267 34.6638 53.5799 34.6385C53.7692 34.6233 53.8062 34.6393 54.0875 34.6385C54.5734 34.6359 54.6275 34.5861 54.8998 34.5912C55.2127 34.5971 55.2334 34.6646 55.915 34.8293C56.2325 34.9096 56.5546 34.973 56.8797 35.0193C57.4766 35.1012 57.5063 35.0328 57.9968 35.1147C58.5693 35.2101 58.5603 35.3089 59.012 35.3528C59.3874 35.391 59.7672 35.3585 60.129 35.2574C60.5915 35.1231 60.5438 34.9999 60.9414 34.8774C61.7239 34.6351 62.502 34.9281 62.6165 34.9728C63.0574 35.1451 63.0529 35.2895 63.4288 35.3528C63.7606 35.4094 64.05 35.3452 64.444 35.2574C64.912 35.1535 64.9165 35.0868 65.3069 35.0193C65.6087 34.9708 65.9154 34.9549 66.2211 34.972C66.5284 34.9756 66.8346 35.0075 67.1353 35.0674C67.5239 35.1468 67.587 35.2118 67.8457 35.2101C68.0735 35.2028 68.2976 35.1543 68.5057 35.0674C68.9231 34.918 68.9186 34.8141 69.2675 34.6874C69.5506 34.5844 69.7823 34.5701 70.1818 34.5448C70.354 34.5338 70.5866 34.5372 71.0446 34.5448C71.7163 34.5557 71.7433 34.5684 71.9074 34.5448C72.0571 34.5236 72.2807 34.451 72.7197 34.3067C73.1254 34.1732 73.3292 34.1074 73.5321 34.0213C74.0288 33.8119 73.9991 33.7494 74.2425 33.6886C74.5409 33.6134 74.8177 33.6692 75.3596 33.784C76.0448 33.9284 76.0213 34.0002 76.4766 34.0694C76.8093 34.1192 76.9157 34.0956 77.6442 34.1167C78.4286 34.1395 78.48 34.093 78.6594 34.164C78.9903 34.2957 79.1832 34.5481 79.4717 34.9247C79.7512 35.2903 79.7224 35.3815 79.9793 35.6382C80.2309 35.8889 80.3264 35.8695 80.5888 36.1135C80.7709 36.2832 80.8566 36.415 81.1469 36.8743C81.732 37.7988 81.6815 37.7321 81.8068 37.9204C82.2603 38.6026 82.3117 38.5554 82.5687 39.0138C82.7959 39.4208 82.7851 39.5103 83.0258 39.87C83.2485 40.2018 83.3432 40.2525 83.4315 40.488C83.5275 40.7645 83.5449 41.0596 83.482 41.3442C83.4018 41.7909 83.2341 41.8432 83.0249 42.3903C82.8806 42.7686 82.9356 42.7965 82.7706 43.4365C82.6886 43.7573 82.3938 44.9039 82.1612 44.887C82.0097 44.8761 82.1107 44.3847 81.7041 43.96C81.4633 43.7083 81.155 43.5952 80.7899 43.461C80.5262 43.3677 80.2544 43.2962 79.9775 43.2473C79.341 43.1182 79.2986 43.1874 79.0056 43.0742C78.7901 42.9915 78.5936 42.8387 78.2014 42.5339C77.7208 42.1607 77.7362 42.1117 77.4395 41.9158C76.8437 41.4931 76.1029 41.29 75.3578 41.345C74.9936 41.3539 74.6334 41.4181 74.2912 41.535C73.9567 41.6515 73.7412 41.7866 73.3517 42.034C72.9262 42.3051 72.8964 42.3726 72.3618 42.7475C71.8614 43.0979 71.6036 43.2769 71.2447 43.4373C70.7561 43.6551 70.3738 43.8257 70.0005 43.6991C69.6904 43.5935 69.7499 43.4044 69.2865 43.0759C68.9734 42.8527 68.6097 42.6999 68.2235 42.6293C67.9097 42.571 67.5862 42.577 67.2751 42.6468C66.964 42.7166 66.6727 42.8486 66.4212 43.0337C65.883 43.3968 65.9037 43.6509 65.4565 43.8181C65.2175 43.9183 64.9501 43.9432 64.6947 43.889C64.2096 43.7674 64.2105 43.3799 63.6795 43.1992C63.417 43.1211 63.138 43.1049 62.8672 43.1519C62.4119 43.206 62.3893 43.3478 62.0043 43.39C61.6158 43.4322 61.3002 43.3242 60.9378 43.2001C60.4626 43.0371 60.4491 42.9316 60.0235 42.8201C59.7595 42.7499 59.4856 42.7177 59.2112 42.7247C58.9227 42.7357 58.7162 42.7914 58.3484 42.891C57.7569 43.0514 57.7191 43.135 57.4603 43.1291C57.2466 43.1241 57.1917 43.065 56.6732 42.8674C56.2549 42.7078 55.9375 42.6115 55.6067 42.5111C55.1036 42.3582 54.7042 42.2671 54.5148 42.2257C53.9595 42.1049 53.6827 42.045 53.2968 42.0357C52.9109 42.0264 52.5701 42.018 52.1797 42.1784C51.8458 42.3207 51.5572 42.5418 51.3421 42.8201C50.8823 43.3993 51.0428 43.8249 50.6822 43.9853C50.4252 44.0993 50.3161 43.8966 49.6922 43.8899C49.3183 43.8834 48.9469 43.948 48.6004 44.0799C48.0297 44.3036 47.9531 44.5763 47.7123 44.5316L47.7168 44.5299Z" fill="white" stroke="white" stroke-width="0.821678" stroke-miterlimit="10"/>
<path d="M84.2023 71.7934H45.5891C45.3935 71.7934 45.2059 71.7207 45.0676 71.5912C44.9293 71.4616 44.8516 71.286 44.8516 71.1028C44.8516 70.9196 44.9293 70.7439 45.0676 70.6144C45.2059 70.4849 45.3935 70.4121 45.5891 70.4121H84.2014C84.397 70.4121 84.5846 70.4849 84.7229 70.6144C84.8612 70.7439 84.9389 70.9196 84.9389 71.1028C84.9389 71.286 84.8612 71.4616 84.7229 71.5912C84.5846 71.7207 84.3979 71.7934 84.2023 71.7934Z" fill="white" stroke="white" stroke-width="0.164336" stroke-miterlimit="10"/>
<path d="M52.9348 72.7441H46.3109C45.5055 72.7441 44.8525 73.3556 44.8525 74.1099C44.8525 74.8641 45.5055 75.4756 46.3109 75.4756H52.9348C53.7402 75.4756 54.3932 74.8641 54.3932 74.1099C54.3932 73.3556 53.7402 72.7441 52.9348 72.7441Z" fill="white" stroke="white" stroke-width="0.164336" stroke-miterlimit="10"/>
<path d="M58.4691 72.6777H56.8138C56.0084 72.6777 55.3555 73.2892 55.3555 74.0434C55.3555 74.7977 56.0084 75.4092 56.8138 75.4092H58.4691C59.2745 75.4092 59.9274 74.7977 59.9274 74.0434C59.9274 73.2892 59.2745 72.6777 58.4691 72.6777Z" fill="white" stroke="white" stroke-width="0.164336" stroke-miterlimit="10"/>
<path d="M70.6556 72.6777H62.5882C61.7828 72.6777 61.1299 73.2892 61.1299 74.0434C61.1299 74.7977 61.7828 75.4092 62.5882 75.4092H70.6556C71.461 75.4092 72.1139 74.7977 72.1139 74.0434C72.1139 73.2892 71.461 72.6777 70.6556 72.6777Z" fill="white" stroke="white" stroke-width="0.164336" stroke-miterlimit="10"/>
<path d="M76.7968 72.6777H74.678C73.8726 72.6777 73.2197 73.2892 73.2197 74.0434C73.2197 74.7977 73.8726 75.4092 74.678 75.4092H76.7968C77.6022 75.4092 78.2551 74.7977 78.2551 74.0434C78.2551 73.2892 77.6022 72.6777 76.7968 72.6777Z" fill="white" stroke="white" stroke-width="0.164336" stroke-miterlimit="10"/>
<path d="M83.481 72.6777H80.6419C79.8365 72.6777 79.1836 73.2892 79.1836 74.0434C79.1836 74.7977 79.8365 75.4092 80.6419 75.4092H83.481C84.2864 75.4092 84.9393 74.7977 84.9393 74.0434C84.9393 73.2892 84.2864 72.6777 83.481 72.6777Z" fill="white" stroke="white" stroke-width="0.164336" stroke-miterlimit="10"/>
<path d="M50.1963 76.2402H46.4069C45.5484 76.2402 44.8525 76.8919 44.8525 77.6959C44.8525 78.4998 45.5484 79.1515 46.4069 79.1515H50.1963C51.0547 79.1515 51.7506 78.4998 51.7506 77.6959C51.7506 76.8919 51.0547 76.2402 50.1963 76.2402Z" fill="white" stroke="white" stroke-width="0.164336" stroke-miterlimit="10"/>
<path d="M60.15 76.2402H54.278C53.4195 76.2402 52.7236 76.8919 52.7236 77.6959C52.7236 78.4998 53.4195 79.1515 54.278 79.1515H60.15C61.0085 79.1515 61.7044 78.4998 61.7044 77.6959C61.7044 76.8919 61.0085 76.2402 60.15 76.2402Z" fill="white" stroke="white" stroke-width="0.164336" stroke-miterlimit="10"/>
<path d="M67.8587 76.2402H64.3317C63.4732 76.2402 62.7773 76.8919 62.7773 77.6959C62.7773 78.4998 63.4732 79.1515 64.3317 79.1515H67.8587C68.7171 79.1515 69.413 78.4998 69.413 77.6959C69.413 76.8919 68.7171 76.2402 67.8587 76.2402Z" fill="white" stroke="white" stroke-width="0.164336" stroke-miterlimit="10"/>
<path d="M78.0036 76.2402H72.1676C71.3092 76.2402 70.6133 76.8919 70.6133 77.6959C70.6133 78.4998 71.3092 79.1515 72.1676 79.1515H78.0036C78.862 79.1515 79.558 78.4998 79.558 77.6959C79.558 76.8919 78.862 76.2402 78.0036 76.2402Z" fill="white" stroke="white" stroke-width="0.164336" stroke-miterlimit="10"/>
<path d="M83.3843 76.2402H82.0211C81.1627 76.2402 80.4668 76.8919 80.4668 77.6959C80.4668 78.4998 81.1627 79.1515 82.0211 79.1515H83.3843C84.2428 79.1515 84.9387 78.4998 84.9387 77.6959C84.9387 76.8919 84.2428 76.2402 83.3843 76.2402Z" fill="white" stroke="white" stroke-width="0.164336" stroke-miterlimit="10"/>
<path d="M48.335 79.9824H42.0337C41.2234 79.9824 40.5664 80.5977 40.5664 81.3566C40.5664 82.1155 41.2234 82.7307 42.0337 82.7307H48.335C49.1453 82.7307 49.8023 82.1155 49.8023 81.3566C49.8023 80.5977 49.1453 79.9824 48.335 79.9824Z" fill="white" stroke="white" stroke-width="0.164336" stroke-miterlimit="10"/>
<path d="M60.5325 79.9824H52.2496C51.4392 79.9824 50.7822 80.5977 50.7822 81.3566C50.7822 82.1155 51.4392 82.7307 52.2496 82.7307H60.5325C61.3429 82.7307 61.9998 82.1155 61.9998 81.3566C61.9998 80.5977 61.3429 79.9824 60.5325 79.9824Z" fill="white" stroke="white" stroke-width="0.164336" stroke-miterlimit="10"/>
<path d="M68.8321 79.9824H64.5513C63.7409 79.9824 63.084 80.5977 63.084 81.3566C63.084 82.1155 63.7409 82.7307 64.5513 82.7307H68.8321C69.6425 82.7307 70.2994 82.1155 70.2994 81.3566C70.2994 80.5977 69.6425 79.9824 68.8321 79.9824Z" fill="white" stroke="white" stroke-width="0.164336" stroke-miterlimit="10"/>
<path d="M80.0115 79.9824H72.9205C72.1101 79.9824 71.4531 80.5977 71.4531 81.3566C71.4531 82.1155 72.1101 82.7307 72.9205 82.7307H80.0115C80.8219 82.7307 81.4788 82.1155 81.4788 81.3566C81.4788 80.5977 80.8219 79.9824 80.0115 79.9824Z" fill="white" stroke="white" stroke-width="0.164336" stroke-miterlimit="10"/>
<path d="M86.96 79.9824H84.0533C83.2429 79.9824 82.5859 80.5977 82.5859 81.3566C82.5859 82.1155 83.2429 82.7307 84.0533 82.7307H86.96C87.7704 82.7307 88.4273 82.1155 88.4273 81.3566C88.4273 80.5977 87.7704 79.9824 86.96 79.9824Z" fill="white" stroke="white" stroke-width="0.164336" stroke-miterlimit="10"/>
<path d="M60.0141 52.6008C60.2433 52.5764 60.4647 52.5086 60.6651 52.4016C61.5892 51.9026 61.7298 50.6622 61.7993 50.056C61.9309 48.8933 61.6117 48.2111 61.7993 47.5998C61.8532 47.4029 61.8591 47.1971 61.8164 46.9978C61.7894 46.8762 61.7497 46.709 61.5964 46.6331C61.544 46.6083 61.4861 46.5954 61.4274 46.5954C61.3686 46.5954 61.3107 46.6083 61.2583 46.6331C61.2241 46.6491 61.1132 46.7099 61.0383 46.9497C60.9754 47.1558 60.9637 47.3727 61.0041 47.5838C61.0645 47.8607 61.0573 48.3842 60.7336 49.4683C60.3847 50.219 60.0195 50.3591 59.8194 50.3878C59.3469 50.4562 59.1874 49.9927 58.0928 49.3738C57.2778 48.9128 56.7549 48.825 56.7053 48.4543C56.6692 48.1875 56.9253 48.1199 56.9424 47.7425C56.9649 47.2384 56.5178 46.8543 56.3672 46.6964C56.0724 46.389 55.6991 46.2801 55.37 46.1847C55.0392 46.0885 54.6334 45.9711 54.1331 46.0935C53.7538 46.1896 53.4163 46.3949 53.1684 46.6803C53.0764 46.7876 52.6887 47.2359 52.7626 47.821C52.8086 48.1917 53.0187 48.4467 53.1684 48.6291C53.63 49.1905 54.0213 49.1281 54.2007 49.5798C54.2806 49.8207 54.2979 50.076 54.2512 50.3245C54.2142 50.6073 54.1403 50.6563 54.0817 50.9586C54.042 51.1638 53.9798 51.4812 54.0817 51.8147C54.1448 52.0225 54.3269 52.2538 54.6911 52.7182C54.9183 53.0086 54.9896 53.0703 55.0464 53.2408C55.1392 53.5195 55.0401 53.6174 55.0969 53.9062C55.1843 54.352 55.4674 54.3579 55.5026 54.6669C55.5422 55.0106 55.2032 55.1136 54.7407 55.8557C54.4712 56.2889 54.3368 56.5059 54.335 56.8065C54.3323 57.2421 54.5974 57.2937 54.6397 57.8526C54.661 58.1606 54.609 58.4692 54.4874 58.756C54.3594 59.06 54.2818 59.0271 54.1322 59.3268C53.8896 59.8115 54.0393 60.0057 53.8274 60.6102C53.7347 60.8585 53.6157 61.0976 53.4722 61.3237C53.2651 61.6743 53.0275 62.0084 52.7617 62.3225C52.4029 62.7523 52.3146 62.7726 51.8475 63.3214C51.5771 63.6397 51.44 63.8018 51.3399 63.9867C51.1398 64.3574 51.1948 64.4908 51.0352 65.0801C50.9072 65.553 50.7629 66.068 50.3752 66.5543C50.1886 66.7882 49.8911 66.8254 49.7658 67.1251C49.7045 67.2766 49.6871 67.4406 49.7153 67.6005C49.7495 67.798 49.846 67.9247 50.0371 68.1696C50.1695 68.3391 50.3166 68.4982 50.4771 68.6449C50.5438 68.7811 50.6403 68.9027 50.7603 69.0018C50.8804 69.1008 51.0213 69.1751 51.174 69.2199C51.6086 69.3347 52.1505 69.1853 52.2713 68.8982C52.4336 68.5132 51.6852 68.2405 51.5212 67.511C51.4274 67.0947 51.8205 66.4437 52.6094 65.1587C53.3324 63.9808 53.703 63.3864 54.1322 63.1297C54.3305 63.0115 54.6533 62.8545 54.9102 62.4956C55.1374 62.1781 55.1266 61.9645 55.2826 61.5761C55.4449 61.1717 55.5828 61.0898 56.0607 60.4354C56.8964 59.293 56.9965 58.827 57.2787 58.8506C57.5798 58.8759 57.523 59.4096 58.1758 59.8174C58.3245 59.9103 58.559 60.0268 58.87 60.1821C59.2315 60.362 59.2009 60.3324 59.3533 60.4169C59.8239 60.6769 59.8347 60.8078 60.2116 60.9834C60.5632 61.1472 60.684 61.094 60.7309 61.1962C60.8418 61.4368 60.2044 61.7973 59.5128 62.5117C58.815 63.2319 59.0107 63.3332 58.2948 64.1125C57.4762 65.0033 56.8802 65.2406 56.9749 65.5707C57.0389 65.7936 57.3193 65.7168 58.0243 66.1094C58.7393 66.5071 58.9106 66.8406 59.4461 66.8701C59.5417 66.8752 59.8996 66.8955 60.0213 66.7114C60.1449 66.5239 59.9979 66.1651 59.6174 65.8375C59.1829 65.4559 59.117 65.1739 59.1414 64.9839C59.2306 64.2881 60.6353 63.958 61.8155 63.036C62.0562 62.8477 62.3006 62.6248 62.4078 62.5269C62.8027 62.1663 63.0002 61.9865 63.0507 61.8455C63.167 61.5221 62.9389 61.2578 62.4078 60.4194C61.6361 59.201 61.7848 59.2339 61.426 58.8185C61.3304 58.7079 61.2493 58.653 60.9617 58.3668C60.6975 58.1042 60.4721 57.8796 60.2251 57.5985C60.054 57.4117 59.8948 57.2158 59.7482 57.0116C59.4696 56.6005 59.4308 56.2543 59.3118 55.4766C59.0476 53.7559 58.9421 53.5456 59.1567 53.218C59.362 52.9294 59.6635 52.7124 60.0141 52.6008Z" fill="white" stroke="white" stroke-width="0.821678" stroke-miterlimit="10"/>
<path d="M52.3913 51.3043C52.2832 51.0814 52.2886 51.0358 52.2273 50.997C52.1001 50.9176 51.9901 51.0577 51.735 51.0409C51.4699 51.0231 51.4312 50.861 51.1724 50.8433C50.9903 50.8306 50.8514 50.9007 50.7036 50.975C50.5773 51.0383 50.2383 51.2089 50.1175 51.5677C50.065 51.7474 50.065 51.9369 50.1175 52.1165C50.1617 52.3276 50.2248 52.6232 50.4692 52.7751C50.6873 52.9111 50.9073 52.8444 50.9849 52.9947C51.0354 53.0918 50.9569 53.1466 51.0083 53.2581C51.0759 53.4042 51.2941 53.4911 51.4771 53.4776C51.7224 53.459 51.836 53.2648 51.8991 53.302C51.9748 53.3467 51.8089 53.6245 51.735 54.0045C51.6728 54.3236 51.7034 54.5643 51.7584 54.9924C51.7747 55.1182 51.7729 55.0692 51.946 55.9363C51.9667 56.0402 52.0244 56.3315 52.0866 56.7047C52.1452 57.0576 52.1741 57.2358 52.1569 57.3194C52.1046 57.5727 51.9559 57.6309 51.5709 58.0877C51.2589 58.4575 51.1039 58.6416 51.0552 58.8341C51.0002 59.0519 51.0345 59.2943 51.1021 59.7781C51.1444 60.082 51.1625 60.071 51.1724 60.2171C51.1994 60.6249 51.0768 60.9331 50.9614 61.2269C50.7622 61.7361 50.3817 62.626 50.4764 62.6758C50.5233 62.7003 50.6603 62.5053 51.4843 61.4828C51.7945 61.0978 51.9279 60.9356 52.0632 60.6562C52.1892 60.3886 52.2836 60.1088 52.3445 59.822C52.4364 59.3669 52.3859 59.3677 52.4851 59.1195C52.6312 58.7547 52.7889 58.7319 52.9143 58.3731C52.9855 58.1754 53.0149 57.9666 53.0008 57.7584C52.9621 57.2543 52.6582 57.1606 52.7195 56.7705C52.7394 56.6456 52.8034 56.5113 52.9305 56.2437C53.0096 56.0686 53.1037 55.8997 53.2118 55.7388C53.3434 55.5446 53.3894 55.5243 53.5165 55.3217C53.6373 55.1291 53.6977 55.0329 53.7041 54.9265C53.7158 54.7163 53.5616 54.6909 53.4931 54.4216C53.4146 54.1143 53.5814 54.0146 53.4696 53.763C53.421 53.6532 53.3903 53.676 53.1884 53.4337C53.0525 53.265 52.9273 53.0891 52.8133 52.9068C52.6014 52.5868 52.495 52.4273 52.4851 52.38C52.4148 52.038 52.6645 51.8759 52.532 51.5677C52.5004 51.4943 52.4761 51.4799 52.3913 51.3043Z" fill="white" stroke="white" stroke-width="0.821678" stroke-miterlimit="10"/>
<path d="M79.8757 65.1857C79.8117 64.9966 79.7495 64.6968 79.6268 64.0965C79.5421 63.6845 79.5394 63.6169 79.5763 63.5975C79.7314 63.5139 80.4428 64.365 80.9468 65.0717C81.7348 66.1753 81.6428 66.3999 82.2162 67.2113C83.2377 68.6568 84.3593 69.1178 84.1961 69.4226C84.078 69.6421 83.501 69.3913 82.0638 69.3989C80.8296 69.4057 80.1543 69.5965 80.0335 69.3517C79.9316 69.1465 80.3652 68.9354 80.6934 68.211C80.835 67.8986 81.0405 67.4435 80.9621 66.9411C80.844 66.1846 80.2201 66.1997 79.8757 65.1874V65.1857Z" fill="white" stroke="white" stroke-width="0.821678" stroke-miterlimit="10"/>
<path d="M49.5209 65.1857C49.5849 64.9966 49.6471 64.6968 49.7697 64.0965C49.8545 63.6845 49.8572 63.6169 49.8202 63.5975C49.6652 63.5139 48.9538 64.365 48.4498 65.0717C47.6618 66.1753 47.7538 66.3999 47.1804 67.2113C46.1589 68.6568 45.0373 69.1178 45.2005 69.4226C45.3186 69.6421 45.8956 69.3913 47.3327 69.3989C48.567 69.4057 49.2423 69.5965 49.3631 69.3517C49.465 69.1465 49.0313 68.9354 48.7032 68.211C48.5616 67.8986 48.3561 67.4435 48.4345 66.9411C48.5526 66.1846 49.1765 66.1997 49.5209 65.1874V65.1857Z" fill="white" stroke="white" stroke-width="0.821678" stroke-miterlimit="10"/>
</g>
<defs>
<clipPath id="clip0_235_2">
<rect width="129" height="122" fill="white"/>
</clipPath>
<clipPath id="clip1_235_2">
<rect width="129" height="122" fill="white"/>
</clipPath>
</defs>
</svg>
