<svg width="235" height="235" viewBox="0 0 235 235" fill="none" xmlns="http://www.w3.org/2000/svg">
<mask id="mask0_17_1776" style="mask-type:luminance" maskUnits="userSpaceOnUse" x="0" y="0" width="235" height="235">
<path d="M235 0H0V235H235V0Z" fill="white"/>
</mask>
<g mask="url(#mask0_17_1776)">
<mask id="mask1_17_1776" style="mask-type:luminance" maskUnits="userSpaceOnUse" x="0" y="0" width="235" height="235">
<path d="M117.5 0C52.6057 0 0 52.6057 0 117.5C0 182.394 52.6057 235 117.5 235C182.394 235 235 182.394 235 117.5C235 52.6057 182.394 0 117.5 0Z" fill="white"/>
</mask>
<g mask="url(#mask1_17_1776)">
<path d="M258.5 -23.5H-23.5V258.5H258.5V-23.5Z" fill="#ECEEE0"/>
<path d="M117.5 0C52.6057 0 0 52.6057 0 117.5C0 182.394 52.6057 235 117.5 235C182.394 235 235 182.394 235 117.5C235 52.6057 182.394 0 117.5 0Z" stroke="black" stroke-width="5.75175"/>
</g>
<mask id="mask2_17_1776" style="mask-type:luminance" maskUnits="userSpaceOnUse" x="46" y="46" width="143" height="143">
<path d="M46.4468 46.4473H188.553V188.554H46.4468V46.4473Z" fill="white"/>
</mask>
<g mask="url(#mask2_17_1776)">
<mask id="mask3_17_1776" style="mask-type:luminance" maskUnits="userSpaceOnUse" x="46" y="46" width="143" height="143">
<path d="M117.5 46.4473C78.2566 46.4473 46.4468 78.2579 46.4468 117.5C46.4468 156.743 78.2574 188.554 117.5 188.554C156.742 188.554 188.553 156.743 188.553 117.501C188.553 78.2581 156.742 46.4473 117.5 46.4473Z" fill="white"/>
</mask>
<g mask="url(#mask3_17_1776)">
<path d="M46.4468 46.4473H188.553V188.554H46.4468V46.4473Z" fill="black" fill-opacity="0.62"/>
</g>
</g>
<path d="M32.3769 61.8262L25.3857 74.0265L42.6558 83.9234L44.7119 80.3323L37.5568 76.2346L41.8652 68.7146L38.6632 66.8787L34.3549 74.3987L30.6438 72.2713L35.5788 63.662L32.3769 61.8262Z" fill="black"/>
<path d="M59.62 61.4953C63.0275 58.0633 63.4681 53.9312 60.4719 50.4822L57.7137 53.258C58.8476 54.8173 59.1311 56.9103 57.2608 58.7951C54.8178 61.2552 51.4739 60.614 48.4997 57.6592C45.6207 54.8053 44.9966 51.5053 47.4396 49.0452C49.1727 47.2998 51.17 47.2337 52.8936 48.4723L55.672 45.6744C52.3207 42.8618 48.1911 43.2118 44.764 46.6633C41.0211 50.4332 41.0211 56.0658 45.5841 60.5969C50.1666 65.1475 55.88 65.265 59.62 61.4953Z" fill="black"/>
<path d="M87.642 33.8244L88.134 37.8635L86.0361 34.3973L79.187 24.4343L73.7085 26.3876L80.3986 45.1361L84.0068 43.8486L81.4977 36.8184L77.772 27.7879L81.0259 32.8305L87.6396 42.5513L91.615 41.1339L90.5961 29.6238L89.8647 23.5015L92.6871 32.8251L95.1962 39.856L98.8288 38.5586L92.1412 19.8125L86.5845 21.7954L87.642 33.8244Z" fill="black"/>
<path d="M112.788 15.3928L112.666 11.8161L108.725 11.9507L108.849 15.5271L112.788 15.3928ZM118.682 15.1897L118.56 11.6133L114.621 11.7479L114.743 15.3243L118.682 15.1897ZM114.48 37.7399C119.79 37.5563 123.836 33.2479 123.616 26.7951C123.392 20.3694 119.065 16.5458 113.757 16.7297C108.449 16.9136 104.507 21.0205 104.727 27.4464C104.95 33.9284 109.172 37.921 114.48 37.7399ZM114.358 34.1634C111.089 34.276 109.008 31.5221 108.862 27.3019C108.722 23.2538 110.612 20.4184 113.88 20.3058C117.148 20.1932 119.339 22.8594 119.478 26.9373C119.625 31.1574 117.625 34.0507 114.357 34.1634H114.358Z" fill="black"/>
<path d="M139.225 19.4801L135.2 18.5156L130.559 37.8712L144.015 41.1001L144.876 37.5115L135.443 35.2468L139.225 19.4801Z" fill="black"/>
<path d="M162.763 27.7317L159.091 25.8223L149.912 43.4816L162.187 49.8657L163.892 46.5905L155.285 42.1152L162.763 27.7317Z" fill="black"/>
<path d="M180.201 65.2616L188.644 45.9695L185.131 42.7285L166.456 52.5814L169.682 55.5559L173.474 53.4259L178.774 58.3169L176.955 62.2679L180.201 65.2616ZM178.871 50.4199L184.012 47.3633L181.359 52.7144L180.286 55.0709L176.607 51.6781L178.871 50.4199Z" fill="black"/>
<path d="M199.739 74.7243C198.542 75.4439 197.333 76.2004 196.148 76.9428C196.777 75.8168 197.367 74.6809 197.967 73.5059L203.166 63.476L201.08 60L184.011 70.2398L186.138 73.7868L193.619 69.3004C194.794 68.5979 196.015 67.8635 197.2 67.1193C196.552 68.3238 195.905 69.5282 195.271 70.7545L190.194 80.5489L192.278 84.0239L209.347 73.7868L207.22 70.2371L199.739 74.7243Z" fill="black"/>
<path d="M92.4673 205.914L91.1724 208.024L91.4833 205.579L91.9876 198.24L88.6362 197.1L84.7368 208.566L86.9424 209.317L88.4061 205.019L90.0439 199.303L89.6889 202.938L89.165 210.073L91.5959 210.901L95.4635 205.028L97.4317 201.834L95.2505 207.346L93.7868 211.648L96.0094 212.402L99.9114 200.935L96.5138 199.78L92.4673 205.914Z" fill="black"/>
<path d="M111.691 215.197L109.398 202.59L106.524 202.146L100.443 213.463L103.082 213.873L104.272 211.507L108.61 212.176L109.036 214.788L111.691 215.197ZM105.975 208.155L107.532 204.867L108.009 208.468L108.271 210.022L105.261 209.56L105.975 208.155Z" fill="black"/>
<path d="M118.648 203.292L116.132 203.285L116.1 215.397L124.521 215.419L124.526 213.174L118.624 213.159L118.648 203.292Z" fill="black"/>
<path d="M134.418 209.234L134.261 211.704L133.392 209.398L130.406 202.673L126.913 203.232L128.822 215.192L131.122 214.825L130.408 210.339L129.184 204.522L130.57 207.9L133.441 214.453L135.977 214.049L136.653 207.05L136.897 203.307L137.546 209.197L138.263 213.683L140.581 213.311L138.67 201.352L135.125 201.92L134.418 209.234Z" fill="black"/>
<path d="M145.676 197.94L144.957 195.884L142.692 196.677L143.412 198.731L145.676 197.94ZM149.064 196.755L148.347 194.701L146.083 195.492L146.8 197.549L149.064 196.755ZM150.702 210.618C153.752 209.553 155.326 206.317 154.029 202.609C152.739 198.914 149.532 197.475 146.482 198.543C143.431 199.61 141.882 202.709 143.172 206.403C144.474 210.129 147.65 211.685 150.702 210.618ZM149.982 208.564C148.105 209.22 146.396 207.996 145.549 205.57C144.736 203.243 145.321 201.255 147.199 200.599C149.076 199.943 150.832 201.093 151.652 203.438C152.499 205.864 151.862 207.906 149.982 208.564L149.982 208.564Z" fill="black"/>
<path d="M21.6443 120.125H25.2967V121.495H19.0005V120.683L21.8989 117.833C22.3697 117.397 22.7961 116.915 23.1718 116.394C23.4045 116.061 23.5306 115.665 23.5334 115.258C23.5504 114.91 23.4309 114.569 23.2004 114.308C23.0841 114.185 22.9424 114.089 22.7851 114.027C22.6278 113.964 22.4588 113.937 22.2898 113.947C22.1082 113.935 21.9263 113.965 21.7582 114.034C21.5901 114.104 21.4402 114.211 21.3203 114.348C21.0975 114.61 20.9572 115.005 20.8992 115.533L20.8894 115.66H19.167L19.1865 115.533C19.2771 114.608 19.6003 113.899 20.1561 113.408C20.7167 112.914 21.4836 112.666 22.4568 112.664C23.3821 112.664 24.0969 112.889 24.6012 113.34C24.8545 113.566 25.0543 113.846 25.1864 114.159C25.3185 114.472 25.3796 114.811 25.3652 115.15C25.3638 115.689 25.2074 116.216 24.9148 116.668C24.6137 117.138 24.0556 117.768 23.2403 118.558L21.6443 120.125Z" fill="#ECEEE0"/>
<path d="M30.6276 112.672C32.865 112.672 33.9845 114.173 33.9861 117.176C33.9861 120.172 32.8666 121.67 30.6276 121.67C28.3755 121.67 27.2495 120.172 27.2495 117.176C27.2495 114.175 28.3755 112.674 30.6276 112.672ZM29.4526 119.595C29.7072 120.118 30.0935 120.378 30.6177 120.378C31.1466 120.378 31.5332 120.118 31.7829 119.595C32.0325 119.071 32.1549 118.263 32.1549 117.166C32.1549 116.065 32.0309 115.255 31.7829 114.738C31.5334 114.224 31.1484 113.964 30.6276 113.964C30.3762 113.958 30.1288 114.029 29.9188 114.167C29.7087 114.305 29.546 114.504 29.4526 114.738C29.203 115.254 29.0805 116.065 29.0805 117.166C29.0805 118.263 29.203 119.073 29.4526 119.595Z" fill="#ECEEE0"/>
<path d="M204.527 112.072C206.764 112.072 207.883 113.574 207.885 116.576C207.885 119.573 206.766 121.071 204.527 121.071C202.274 121.071 201.148 119.573 201.148 116.576C201.148 113.575 202.274 112.074 204.527 112.072ZM203.352 118.995C203.606 119.519 203.992 119.778 204.517 119.778C205.045 119.778 205.432 119.519 205.682 118.995C205.931 118.471 206.054 117.664 206.054 116.567C206.054 115.465 205.93 114.655 205.682 114.138C205.432 113.624 205.047 113.365 204.527 113.365C204.275 113.358 204.028 113.429 203.818 113.567C203.608 113.706 203.445 113.905 203.352 114.138C203.102 114.655 202.979 115.465 202.979 116.567C202.979 117.663 203.102 118.473 203.352 118.995Z" fill="#ECEEE0"/>
<path d="M212.432 119.523H216.084V120.894H209.788V120.081L212.686 117.232C213.157 116.795 213.584 116.313 213.959 115.792C214.192 115.459 214.318 115.063 214.321 114.657C214.338 114.309 214.219 113.968 213.988 113.707C213.872 113.584 213.73 113.488 213.573 113.425C213.415 113.363 213.246 113.335 213.077 113.345C212.896 113.333 212.714 113.363 212.546 113.433C212.378 113.502 212.228 113.61 212.108 113.747C211.885 114.009 211.745 114.404 211.687 114.931L211.677 115.059H209.955L209.974 114.931C210.065 114.006 210.388 113.298 210.944 112.807C211.504 112.312 212.271 112.064 213.244 112.062C214.17 112.062 214.885 112.288 215.389 112.738C215.642 112.965 215.842 113.245 215.974 113.558C216.106 113.871 216.167 114.209 216.153 114.549C216.151 115.087 215.995 115.614 215.702 116.066C215.401 116.536 214.843 117.166 214.028 117.956L212.432 119.523Z" fill="#ECEEE0"/>
<path d="M21.5764 127.265H25.2288V128.636H18.9326V127.823L21.831 124.974C22.3018 124.537 22.7282 124.055 23.1039 123.535C23.3366 123.201 23.4627 122.805 23.4655 122.399C23.4825 122.051 23.363 121.71 23.1325 121.449C23.0162 121.326 22.8745 121.23 22.7172 121.167C22.5599 121.105 22.3909 121.078 22.222 121.087C22.0404 121.075 21.8585 121.105 21.6903 121.175C21.5222 121.245 21.3723 121.352 21.2524 121.489C21.0296 121.751 20.8893 122.146 20.8314 122.674L20.8215 122.801H19.0991L19.1186 122.674C19.2092 121.748 19.5324 121.04 20.0882 120.549C20.6488 120.054 21.4157 119.806 22.3889 119.805C23.3142 119.805 24.029 120.03 24.5333 120.48C24.7866 120.707 24.9865 120.987 25.1186 121.3C25.2507 121.613 25.3117 121.951 25.2973 122.291C25.2959 122.83 25.1395 123.356 24.8469 123.809C24.5458 124.279 23.9877 124.909 23.1725 125.698L21.5764 127.265Z" fill="black"/>
<path d="M30.5592 119.814C32.7966 119.814 33.9161 121.316 33.9178 124.319C33.9178 127.315 32.7983 128.813 30.5592 128.813C28.3072 128.813 27.1812 127.315 27.1812 124.319C27.1812 121.317 28.3072 119.816 30.5592 119.814ZM29.3842 126.737C29.6388 127.261 30.0251 127.52 30.5494 127.52C31.0782 127.52 31.4649 127.261 31.7145 126.737C31.9641 126.213 32.0866 125.406 32.0866 124.309C32.0866 123.207 31.9626 122.398 31.7145 121.88C31.4651 121.366 31.08 121.107 30.5592 121.107C30.3078 121.1 30.0605 121.171 29.8504 121.309C29.6403 121.448 29.4777 121.647 29.3842 121.88C29.1346 122.397 29.0122 123.207 29.0122 124.309C29.0122 125.405 29.1346 126.216 29.3842 126.737Z" fill="black"/>
<path d="M204.458 119.215C206.695 119.215 207.815 120.716 207.816 123.719C207.816 126.715 206.697 128.213 204.458 128.213C202.206 128.213 201.08 126.715 201.08 123.719C201.08 120.718 202.206 119.216 204.458 119.215ZM203.283 126.137C203.537 126.661 203.924 126.921 204.448 126.921C204.977 126.921 205.363 126.661 205.613 126.137C205.863 125.614 205.985 124.806 205.985 123.709C205.985 122.607 205.861 121.798 205.613 121.281C205.363 120.767 204.978 120.507 204.458 120.507C204.206 120.501 203.959 120.572 203.749 120.71C203.539 120.848 203.376 121.047 203.283 121.281C203.033 121.797 202.911 122.608 202.911 123.709C202.911 124.806 203.033 125.616 203.283 126.137Z" fill="black"/>
<path d="M212.364 126.666H216.016V128.036H209.72V127.224L212.618 124.374C213.089 123.938 213.515 123.456 213.891 122.935C214.124 122.602 214.25 122.206 214.253 121.799C214.27 121.451 214.15 121.11 213.92 120.849C213.803 120.726 213.662 120.63 213.504 120.568C213.347 120.505 213.178 120.478 213.009 120.488C212.827 120.476 212.646 120.506 212.477 120.575C212.309 120.645 212.159 120.752 212.039 120.889C211.817 121.151 211.676 121.546 211.618 122.074L211.609 122.201H209.886L209.906 122.074C209.996 121.149 210.32 120.44 210.875 119.949C211.436 119.455 212.203 119.207 213.176 119.205C214.101 119.205 214.816 119.43 215.32 119.881C215.574 120.107 215.774 120.387 215.906 120.7C216.038 121.013 216.099 121.352 216.084 121.691C216.083 122.23 215.927 122.757 215.634 123.209C215.333 123.679 214.775 124.309 213.96 125.099L212.364 126.666Z" fill="black"/>
<path d="M126.492 100.99C126.074 100.943 125.67 100.811 125.305 100.602C123.621 99.6311 123.364 97.2171 123.238 96.0371C122.998 93.7742 123.58 92.4464 123.238 91.2566C123.14 90.8733 123.129 90.4728 123.207 90.0849C123.256 89.8482 123.328 89.5229 123.608 89.375C123.703 89.3267 123.809 89.3016 123.916 89.3016C124.023 89.3016 124.128 89.3267 124.224 89.375C124.286 89.4062 124.488 89.5245 124.625 89.9912C124.74 90.3924 124.761 90.8146 124.687 91.2254C124.577 91.7644 124.59 92.7833 125.18 94.8933C125.816 96.3543 126.482 96.6271 126.847 96.683C127.708 96.8161 127.999 95.9139 129.994 94.7093C131.479 93.812 132.432 93.6411 132.523 92.9197C132.589 92.4004 132.122 92.2689 132.091 91.5343C132.05 90.5532 132.865 89.8055 133.139 89.4982C133.676 88.9 134.357 88.688 134.957 88.5023C135.56 88.315 136.299 88.0866 137.211 88.3248C137.903 88.5119 138.518 88.9114 138.97 89.467C139.137 89.6757 139.844 90.5483 139.709 91.6872C139.625 92.4086 139.243 92.9049 138.97 93.2598C138.128 94.3527 137.415 94.2311 137.088 95.1103C136.942 95.5792 136.911 96.0761 136.996 96.5597C137.063 97.1102 137.198 97.2055 137.305 97.7939C137.377 98.1932 137.491 98.8111 137.305 99.4602C137.19 99.8645 136.858 100.315 136.194 101.219C135.78 101.784 135.65 101.904 135.547 102.236C135.377 102.778 135.558 102.969 135.455 103.531C135.295 104.399 134.779 104.41 134.715 105.011C134.643 105.68 135.261 105.881 136.104 107.325C136.595 108.168 136.84 108.591 136.843 109.176C136.848 110.024 136.365 110.124 136.288 111.212C136.249 111.811 136.344 112.412 136.565 112.97C136.799 113.562 136.94 113.498 137.213 114.081C137.655 115.024 137.382 115.402 137.768 116.579C137.937 117.062 138.154 117.528 138.416 117.968C138.793 118.65 139.227 119.3 139.711 119.912C140.365 120.748 140.526 120.788 141.377 121.856C141.87 122.475 142.12 122.791 142.302 123.151C142.667 123.872 142.567 124.132 142.858 125.279C143.091 126.199 143.354 127.202 144.061 128.148C144.401 128.604 144.943 128.676 145.172 129.259C145.283 129.554 145.315 129.873 145.264 130.184C145.201 130.569 145.025 130.815 144.677 131.292C144.436 131.622 144.168 131.932 143.875 132.217C143.754 132.482 143.578 132.719 143.359 132.912C143.14 133.105 142.883 133.249 142.605 133.336C141.813 133.56 140.825 133.269 140.605 132.71C140.309 131.961 141.673 131.43 141.972 130.01C142.143 129.2 141.427 127.933 139.989 125.432C138.671 123.139 137.995 121.982 137.213 121.483C136.851 121.253 136.263 120.947 135.795 120.249C135.381 119.631 135.4 119.215 135.116 118.459C134.82 117.672 134.569 117.513 133.698 116.239C132.174 114.015 131.992 113.108 131.478 113.154C130.929 113.204 131.032 114.242 129.843 115.036C129.571 115.217 129.144 115.444 128.577 115.746C127.918 116.096 127.974 116.038 127.696 116.203C126.838 116.709 126.819 116.964 126.132 117.305C125.491 117.624 125.271 117.521 125.185 117.72C124.983 118.188 126.145 118.89 127.405 120.28C128.677 121.682 128.321 121.879 129.626 123.396C131.118 125.129 132.204 125.591 132.031 126.234C131.915 126.668 131.404 126.518 130.119 127.282C128.815 128.056 128.503 128.705 127.527 128.763C127.353 128.773 126.7 128.812 126.479 128.454C126.253 128.089 126.521 127.391 127.215 126.753C128.007 126.01 128.127 125.461 128.082 125.092C127.92 123.738 125.359 123.095 123.208 121.3C122.77 120.934 122.324 120.5 122.129 120.309C121.409 119.608 121.049 119.258 120.957 118.983C120.745 118.354 121.161 117.84 122.129 116.208C123.535 113.836 123.264 113.9 123.918 113.092C124.092 112.877 124.24 112.77 124.765 112.213C125.246 111.702 125.657 111.264 126.107 110.717C126.419 110.354 126.709 109.972 126.977 109.575C127.484 108.775 127.555 108.101 127.772 106.587C128.253 103.238 128.446 102.829 128.055 102.191C127.68 101.63 127.131 101.207 126.492 100.99Z" fill="#ECEEE0" stroke="#ECEEE0" stroke-width="0.821678" stroke-miterlimit="10"/>
<path d="M140.383 98.4685C140.58 98.0347 140.57 97.9459 140.682 97.8704C140.914 97.7159 141.114 97.9887 141.58 97.9558C142.063 97.9213 142.133 97.6058 142.605 97.5713C142.937 97.5466 143.19 97.683 143.46 97.8276C143.69 97.9509 144.307 98.2828 144.528 98.9813C144.623 99.3309 144.623 99.6998 144.528 100.049C144.447 100.46 144.332 101.035 143.887 101.331C143.489 101.596 143.088 101.466 142.947 101.759C142.855 101.948 142.998 102.054 142.904 102.271C142.781 102.556 142.383 102.725 142.05 102.699C141.603 102.662 141.395 102.284 141.28 102.357C141.142 102.444 141.445 102.984 141.58 103.724C141.693 104.345 141.637 104.814 141.537 105.647C141.507 105.892 141.51 105.796 141.195 107.484C141.157 107.686 141.052 108.253 140.939 108.979C140.832 109.666 140.779 110.013 140.81 110.176C140.906 110.669 141.177 110.782 141.879 111.671C142.447 112.391 142.73 112.749 142.819 113.124C142.919 113.548 142.856 114.02 142.733 114.961C142.656 115.553 142.623 115.532 142.605 115.816C142.556 116.61 142.779 117.209 142.99 117.781C143.353 118.772 144.046 120.504 143.874 120.601C143.788 120.649 143.538 120.269 142.036 118.279C141.471 117.53 141.228 117.214 140.981 116.67C140.752 116.15 140.58 115.605 140.469 115.047C140.301 114.161 140.393 114.163 140.212 113.679C139.946 112.97 139.658 112.925 139.43 112.227C139.3 111.842 139.247 111.436 139.272 111.03C139.343 110.049 139.897 109.867 139.785 109.108C139.749 108.864 139.632 108.603 139.4 108.082C139.256 107.741 139.085 107.413 138.888 107.099C138.648 106.721 138.564 106.682 138.332 106.288C138.112 105.913 138.002 105.726 137.99 105.519C137.969 105.109 138.25 105.06 138.375 104.536C138.518 103.938 138.214 103.744 138.418 103.254C138.506 103.04 138.562 103.085 138.93 102.613C139.178 102.285 139.406 101.942 139.614 101.588C140 100.965 140.194 100.654 140.212 100.562C140.34 99.8966 139.885 99.5811 140.127 98.9813C140.184 98.8383 140.229 98.8104 140.383 98.4685Z" fill="#ECEEE0" stroke="#ECEEE0" stroke-width="0.821678" stroke-miterlimit="10"/>
<path d="M92.7457 90.7991C91.9552 90.6578 91.8698 90.7514 91.431 90.6233C90.973 90.4803 90.5526 90.2372 90.2001 89.9117C89.5642 89.3677 88.5387 88.1533 88.9052 87.5058C89.155 87.0637 89.9421 87.0506 90.4779 87.0424C91.5822 87.0259 91.8271 87.4434 92.8837 87.4121C93.3751 87.3973 94.2017 87.3743 94.5501 86.8567C94.9034 86.3325 94.3759 85.8756 94.6421 85.0063C94.9396 84.0318 95.9157 83.5765 96.0308 83.5256C96.6635 83.2413 97.2173 83.3169 98.0669 83.4336C98.3873 83.4779 98.7259 83.5437 100.381 84.0811C101.51 84.4475 102.075 84.6316 102.601 84.8206C104.083 85.3547 104.18 85.4713 104.637 85.468C105.495 85.4631 105.636 85.0786 106.673 84.8206C108.159 84.4508 109.498 84.8567 109.866 84.9685C111.107 85.3448 111.258 85.8312 112.504 85.9857C112.996 86.0377 113.491 86.0497 113.984 86.0219C115.123 85.9561 115.163 85.7228 115.651 85.8362C116.569 86.0514 116.565 86.7992 117.595 87.1311C118.108 87.2971 118.551 87.2511 119.168 87.1311C119.838 86.9868 120.47 86.6986 121.018 86.2864C121.797 85.7491 121.677 85.5749 122.221 85.2791C122.292 85.2413 123.501 84.6086 124.648 85.0671C125.552 85.4303 125.391 86.0597 126.385 86.574C127.398 87.0966 128.446 86.8978 128.699 86.8518C128.964 86.8025 129.159 86.7351 130.643 85.9265C131.964 85.2068 132.632 84.8403 133.049 84.5379C134.097 83.7803 133.951 83.6209 134.807 83.0572C135.53 82.5807 136.428 81.9907 137.583 82.04C138.569 82.0811 139.304 82.5708 139.897 82.9652C141.009 83.7064 140.888 84.1156 141.841 84.6316C142.416 84.9438 142.507 84.8189 144.247 85.2791C146.247 85.8082 146.562 86.0892 146.745 86.2963C147.205 86.8205 147.532 87.7047 147.208 88.3324C147.004 88.7285 146.612 88.8846 145.913 89.1656C145.113 89.4861 144.926 89.4187 143.969 89.7211C142.704 90.1204 142.378 90.4918 142.025 90.2765C141.89 90.1943 141.895 90.1056 141.655 89.4072C141.486 88.85 141.27 88.3084 141.008 87.7885C140.553 86.9069 139.797 86.2173 138.878 85.8444C138.175 85.5421 137.423 85.3695 136.658 85.3349C135.894 85.2676 135.365 85.2199 134.684 85.4056C134.08 85.5833 133.516 85.8763 133.023 86.2684C132.519 86.6423 132.062 87.0748 131.66 87.5568C130.944 88.385 130.993 88.6052 130.549 88.8517C130.134 89.0834 129.981 88.9487 128.877 89.0719C127.424 89.2313 127.141 89.5222 126.757 89.2691C126.31 88.975 126.568 88.505 125.994 87.7079C125.691 87.2731 125.273 86.9312 124.786 86.7203C124.312 86.5 123.779 86.4391 123.266 86.5466C122.754 86.6541 122.291 86.9243 121.945 87.3168C121.087 88.242 121.73 89.1853 121.033 90.0793C120.592 90.6446 119.937 90.8057 119.179 90.9897C118.155 91.2395 117.339 91.0933 116.486 90.9404C115.472 90.758 114.964 90.6676 114.617 90.2782C114.132 89.7358 114.515 89.2773 114.004 88.2568C113.656 87.5633 113.281 86.8172 112.507 86.5839C111.564 86.3012 110.655 86.9684 110.563 87.0375C109.754 87.6521 110.003 88.2667 109.268 88.712C108.898 88.9355 108.343 88.9388 107.232 88.9437C106.343 88.9487 105.897 88.9503 105.566 88.7958C104.887 88.4787 104.989 88.0465 104.085 87.233C103.613 86.8165 103.083 86.4705 102.512 86.2059C101.92 85.9247 101.3 85.7077 100.662 85.5584C99.7316 85.3054 99.2665 85.1788 98.6256 85.1887C98.019 85.1764 97.4176 85.3029 96.8672 85.5584C96.3872 85.795 95.9618 86.1292 95.6183 86.5395C95.1779 87.0407 94.9774 87.5042 94.6931 88.1582C94.4636 88.6292 94.2926 89.1264 94.1836 89.6389C94.0374 90.408 94.1475 90.7679 93.8862 90.9404C93.6906 91.0686 93.5279 90.9355 92.749 90.7958L92.7457 90.7991Z" fill="#ECEEE0" stroke="#ECEEE0" stroke-width="0.821678" stroke-miterlimit="10"/>
<path d="M86.9149 85.4487C86.2231 85.3123 85.9519 83.8793 85.758 82.8571C85.6199 82.1275 85.5937 81.3535 85.5723 79.8038C85.5438 79.1543 85.5746 78.5036 85.6643 77.8597C85.7468 77.3568 85.8705 76.8616 86.0341 76.379C86.3167 75.5343 86.5041 74.9772 86.9593 74.4349C87.5164 73.7727 87.7645 73.983 88.3479 73.324C88.8541 72.7521 88.6897 72.5697 89.3652 71.3799C89.896 70.4449 90.0406 70.4827 90.4761 69.6215C90.9083 68.7686 90.7982 68.67 91.1236 68.2329C91.6511 67.5246 92.361 67.2157 92.7899 67.03C93.4379 66.7627 94.1262 66.6061 94.826 66.5665C95.5787 66.4992 95.6757 66.601 96.3067 66.4745C96.8211 66.371 97.0314 66.2461 97.6017 66.1968C97.9468 66.1672 98.0141 66.1984 98.5269 66.1968C99.4126 66.1919 99.5112 66.0949 100.008 66.1048C100.578 66.1163 100.616 66.2477 101.858 66.5682C102.437 66.7244 103.024 66.8479 103.616 66.9379C104.704 67.0973 104.758 66.9642 105.652 67.1236C106.696 67.3093 106.68 67.5016 107.503 67.5871C108.187 67.6614 108.879 67.5982 109.539 67.4014C110.382 67.1401 110.295 66.9001 111.02 66.6619C112.446 66.1902 113.864 66.7605 114.073 66.8476C114.877 67.1828 114.868 67.4638 115.554 67.5871C116.158 67.6972 116.686 67.5723 117.404 67.4014C118.257 67.1992 118.265 67.0694 118.977 66.9379C119.527 66.8436 120.086 66.8127 120.643 66.8459C121.203 66.8529 121.762 66.9151 122.31 67.0316C123.018 67.1861 123.133 67.3126 123.604 67.3093C124.02 67.2951 124.428 67.2008 124.807 67.0316C125.568 66.7407 125.56 66.5386 126.196 66.2921C126.712 66.0916 127.134 66.0637 127.862 66.0144C128.176 65.993 128.6 65.9996 129.435 66.0144C130.659 66.0357 130.709 66.0604 131.008 66.0144C131.281 65.9733 131.688 65.832 132.488 65.5509C133.228 65.2913 133.599 65.1631 133.969 64.9955C134.875 64.5879 134.82 64.4663 135.264 64.348C135.808 64.2017 136.313 64.3102 137.3 64.5337C138.549 64.8147 138.506 64.9544 139.336 65.0892C139.943 65.1861 140.137 65.1401 141.465 65.1812C142.894 65.2256 142.988 65.1352 143.315 65.2732C143.918 65.5296 144.27 66.0209 144.796 66.7539C145.305 67.4655 145.252 67.6429 145.721 68.1425C146.179 68.6306 146.353 68.5928 146.832 69.0677C147.164 69.398 147.32 69.6544 147.849 70.5484C148.915 72.3479 148.823 72.218 149.052 72.5845C149.878 73.9123 149.972 73.8203 150.441 74.7127C150.855 75.5048 150.835 75.679 151.274 76.379C151.68 77.0249 151.852 77.1235 152.013 77.582C152.188 78.12 152.22 78.6943 152.105 79.2483C151.959 80.1177 151.653 80.2195 151.272 81.2844C151.009 82.0207 151.109 82.0749 150.809 83.3206C150.659 83.945 150.122 86.1767 149.698 86.1438C149.422 86.1225 149.606 85.166 148.865 84.3394C148.426 83.8497 147.864 83.6295 147.198 83.3682C146.718 83.1867 146.222 83.0476 145.718 82.9524C144.557 82.701 144.48 82.8358 143.946 82.6156C143.553 82.4545 143.195 82.1571 142.48 81.5638C141.604 80.8374 141.632 80.7421 141.091 80.3609C140.005 79.5382 138.655 79.1428 137.297 79.25C136.633 79.2673 135.977 79.3922 135.353 79.6197C134.743 79.8465 134.35 80.1094 133.64 80.5909C132.865 81.1185 132.811 81.2499 131.836 81.9796C130.924 82.6616 130.454 83.01 129.8 83.3222C128.909 83.7462 128.212 84.0781 127.532 83.8316C126.967 83.6262 127.075 83.2581 126.231 82.6188C125.66 82.1845 124.997 81.887 124.293 81.7495C123.721 81.6361 123.131 81.6478 122.564 81.7837C121.997 81.9195 121.466 82.1764 121.008 82.5367C120.027 83.2433 120.065 83.738 119.25 84.0634C118.814 84.2584 118.327 84.3069 117.861 84.2014C116.977 83.9648 116.978 83.2105 116.011 82.8588C115.532 82.7068 115.023 82.6752 114.53 82.7667C113.7 82.8719 113.659 83.148 112.957 83.2302C112.249 83.3123 111.674 83.102 111.013 82.8604C110.147 82.5433 110.122 82.3378 109.347 82.1209C108.865 81.9842 108.366 81.9216 107.866 81.9352C107.34 81.9566 106.964 82.065 106.293 82.2589C105.215 82.5712 105.146 82.7339 104.675 82.7224C104.285 82.7125 104.185 82.5975 103.24 82.2129C102.478 81.9023 101.899 81.715 101.296 81.5194C100.379 81.222 99.6509 81.0445 99.3058 80.964C98.2935 80.729 97.789 80.6123 97.0856 80.5942C96.3823 80.5762 95.7611 80.5597 95.0495 80.872C94.4409 81.1488 93.9148 81.5793 93.5229 82.1209C92.6847 83.2483 92.9773 84.0765 92.3199 84.3887C91.8516 84.6106 91.6527 84.2162 90.5155 84.203C89.834 84.1904 89.1569 84.3162 88.5254 84.5728C87.4852 85.0083 87.3455 85.5391 86.9067 85.452L86.9149 85.4487Z" fill="#ECEEE0" stroke="#ECEEE0" stroke-width="0.821678" stroke-miterlimit="10"/>
<path d="M153.418 138.513H83.0366C82.6801 138.513 82.3382 138.371 82.0861 138.119C81.834 137.867 81.6924 137.525 81.6924 137.168C81.6924 136.812 81.834 136.47 82.0861 136.218C82.3382 135.966 82.6801 135.824 83.0366 135.824H153.417C153.773 135.824 154.115 135.966 154.367 136.218C154.619 136.47 154.761 136.812 154.761 137.168C154.761 137.525 154.619 137.867 154.367 138.119C154.115 138.371 153.773 138.513 153.417 138.513H153.418Z" fill="#ECEEE0" stroke="#ECEEE0" stroke-width="0.164336" stroke-miterlimit="10"/>
<path d="M96.4257 140.361H84.352C82.8839 140.361 81.6938 141.551 81.6938 143.019C81.6938 144.488 82.8839 145.678 84.352 145.678H96.4257C97.8938 145.678 99.0838 144.488 99.0838 143.019C99.0838 141.551 97.8938 140.361 96.4257 140.361Z" fill="#ECEEE0" stroke="#ECEEE0" stroke-width="0.164336" stroke-miterlimit="10"/>
<path d="M106.512 140.232H103.495C102.027 140.232 100.837 141.423 100.837 142.891C100.837 144.359 102.027 145.549 103.495 145.549H106.512C107.98 145.549 109.17 144.359 109.17 142.891C109.17 141.423 107.98 140.232 106.512 140.232Z" fill="#ECEEE0" stroke="#ECEEE0" stroke-width="0.164336" stroke-miterlimit="10"/>
<path d="M128.726 140.232H114.021C112.553 140.232 111.363 141.423 111.363 142.891C111.363 144.359 112.553 145.549 114.021 145.549H128.726C130.194 145.549 131.384 144.359 131.384 142.891C131.384 141.423 130.194 140.232 128.726 140.232Z" fill="#ECEEE0" stroke="#ECEEE0" stroke-width="0.164336" stroke-miterlimit="10"/>
<path d="M139.92 140.232H136.059C134.59 140.232 133.4 141.423 133.4 142.891C133.4 144.359 134.59 145.549 136.059 145.549H139.92C141.388 145.549 142.579 144.359 142.579 142.891C142.579 141.423 141.388 140.232 139.92 140.232Z" fill="#ECEEE0" stroke="#ECEEE0" stroke-width="0.164336" stroke-miterlimit="10"/>
<path d="M152.103 140.232H146.928C145.46 140.232 144.27 141.423 144.27 142.891C144.27 144.359 145.46 145.549 146.928 145.549H152.103C153.571 145.549 154.761 144.359 154.761 142.891C154.761 141.423 153.571 140.232 152.103 140.232Z" fill="#ECEEE0" stroke="#ECEEE0" stroke-width="0.164336" stroke-miterlimit="10"/>
<path d="M91.434 147.168H84.527C82.9623 147.168 81.6938 148.436 81.6938 150.001C81.6938 151.566 82.9623 152.834 84.527 152.834H91.434C92.9987 152.834 94.2672 151.566 94.2672 150.001C94.2672 148.436 92.9987 147.168 91.434 147.168Z" fill="#ECEEE0" stroke="#ECEEE0" stroke-width="0.164336" stroke-miterlimit="10"/>
<path d="M109.577 147.168H98.8737C97.309 147.168 96.0405 148.436 96.0405 150.001C96.0405 151.566 97.309 152.834 98.8737 152.834H109.577C111.142 152.834 112.41 151.566 112.41 150.001C112.41 148.436 111.142 147.168 109.577 147.168Z" fill="#ECEEE0" stroke="#ECEEE0" stroke-width="0.164336" stroke-miterlimit="10"/>
<path d="M123.628 147.168H117.199C115.634 147.168 114.366 148.436 114.366 150.001C114.366 151.566 115.634 152.834 117.199 152.834H123.628C125.192 152.834 126.461 151.566 126.461 150.001C126.461 148.436 125.192 147.168 123.628 147.168Z" fill="#ECEEE0" stroke="#ECEEE0" stroke-width="0.164336" stroke-miterlimit="10"/>
<path d="M142.12 147.168H131.483C129.918 147.168 128.649 148.436 128.649 150.001C128.649 151.566 129.918 152.834 131.483 152.834H142.12C143.685 152.834 144.953 151.566 144.953 150.001C144.953 148.436 143.685 147.168 142.12 147.168Z" fill="#ECEEE0" stroke="#ECEEE0" stroke-width="0.164336" stroke-miterlimit="10"/>
<path d="M151.927 147.168H149.443C147.878 147.168 146.609 148.436 146.609 150.001C146.609 151.566 147.878 152.834 149.443 152.834H151.927C153.492 152.834 154.76 151.566 154.76 150.001C154.76 148.436 153.492 147.168 151.927 147.168Z" fill="#ECEEE0" stroke="#ECEEE0" stroke-width="0.164336" stroke-miterlimit="10"/>
<path d="M88.0413 154.451H76.5559C75.0788 154.451 73.8813 155.649 73.8813 157.126C73.8813 158.603 75.0788 159.8 76.5559 159.8H88.0413C89.5184 159.8 90.7159 158.603 90.7159 157.126C90.7159 155.649 89.5184 154.451 88.0413 154.451Z" fill="#ECEEE0" stroke="#ECEEE0" stroke-width="0.164336" stroke-miterlimit="10"/>
<path d="M110.274 154.451H95.1765C93.6994 154.451 92.502 155.649 92.502 157.126C92.502 158.603 93.6994 159.8 95.1765 159.8H110.274C111.751 159.8 112.949 158.603 112.949 157.126C112.949 155.649 111.751 154.451 110.274 154.451Z" fill="#ECEEE0" stroke="#ECEEE0" stroke-width="0.164336" stroke-miterlimit="10"/>
<path d="M125.403 154.451H117.6C116.123 154.451 114.926 155.649 114.926 157.126C114.926 158.603 116.123 159.8 117.6 159.8H125.403C126.88 159.8 128.078 158.603 128.078 157.126C128.078 155.649 126.88 154.451 125.403 154.451Z" fill="#ECEEE0" stroke="#ECEEE0" stroke-width="0.164336" stroke-miterlimit="10"/>
<path d="M145.779 154.451H132.854C131.377 154.451 130.18 155.649 130.18 157.126C130.18 158.603 131.377 159.8 132.854 159.8H145.779C147.256 159.8 148.454 158.603 148.454 157.126C148.454 155.649 147.256 154.451 145.779 154.451Z" fill="#ECEEE0" stroke="#ECEEE0" stroke-width="0.164336" stroke-miterlimit="10"/>
<path d="M158.444 154.451H153.146C151.669 154.451 150.471 155.649 150.471 157.126C150.471 158.603 151.669 159.8 153.146 159.8H158.444C159.921 159.8 161.118 158.603 161.118 157.126C161.118 155.649 159.921 154.451 158.444 154.451Z" fill="#ECEEE0" stroke="#ECEEE0" stroke-width="0.164336" stroke-miterlimit="10"/>
<path d="M109.329 101.156C109.746 101.109 110.15 100.977 110.515 100.768C112.2 99.7972 112.456 97.3831 112.583 96.2031C112.822 93.9402 112.241 92.6124 112.583 91.4226C112.681 91.0394 112.692 90.6389 112.614 90.2509C112.564 90.0143 112.492 89.6889 112.213 89.541C112.117 89.4928 112.012 89.4676 111.905 89.4676C111.798 89.4676 111.692 89.4928 111.597 89.541C111.534 89.5722 111.332 89.6905 111.196 90.1572C111.081 90.5585 111.059 90.9806 111.133 91.3914C111.243 91.9304 111.23 92.9493 110.64 95.0594C110.004 96.5203 109.339 96.7931 108.974 96.849C108.113 96.9821 107.822 96.0799 105.827 94.8753C104.341 93.978 103.388 93.8071 103.298 93.0857C103.232 92.5664 103.699 92.4349 103.73 91.7003C103.771 90.7193 102.956 89.9715 102.681 89.6642C102.144 89.066 101.464 88.854 100.864 88.6683C100.261 88.481 99.5211 88.2526 98.6091 88.4909C97.9177 88.6779 97.3026 89.0774 96.8507 89.633C96.6831 89.8417 95.9764 90.7143 96.1112 91.8532C96.195 92.5746 96.5779 93.0709 96.8507 93.4259C97.6921 94.5187 98.4053 94.3971 98.7323 95.2763C98.8781 95.7452 98.9096 96.2421 98.8244 96.7257C98.757 97.2762 98.6222 97.3716 98.5154 97.9599C98.4431 98.3592 98.3297 98.9771 98.5154 99.6263C98.6304 100.031 98.9624 100.481 99.6263 101.385C100.04 101.95 100.17 102.07 100.274 102.402C100.443 102.944 100.262 103.135 100.366 103.697C100.525 104.565 101.041 104.576 101.105 105.178C101.178 105.846 100.56 106.047 99.7167 107.491C99.2253 108.334 98.9805 108.757 98.9772 109.342C98.9723 110.19 99.4554 110.29 99.5326 111.378C99.5714 111.977 99.4765 112.578 99.2549 113.136C99.0216 113.728 98.8802 113.664 98.6074 114.247C98.1654 115.19 98.4382 115.568 98.052 116.745C97.883 117.228 97.6661 117.694 97.4045 118.134C97.027 118.816 96.5939 119.466 96.1095 120.078C95.4555 120.914 95.2944 120.954 94.4432 122.022C93.9502 122.641 93.7004 122.957 93.518 123.317C93.1531 124.038 93.2534 124.298 92.9625 125.445C92.7291 126.365 92.4662 127.368 91.7596 128.314C91.4194 128.77 90.8771 128.842 90.6487 129.425C90.537 129.72 90.5052 130.039 90.5566 130.35C90.6191 130.735 90.7949 130.981 91.1433 131.458C91.3845 131.788 91.6528 132.098 91.9453 132.383C92.0668 132.648 92.2427 132.885 92.4615 133.078C92.6803 133.271 92.9373 133.415 93.2156 133.502C94.0077 133.726 94.9953 133.435 95.2155 132.876C95.5113 132.127 94.1474 131.596 93.8483 130.176C93.6774 129.366 94.3939 128.099 95.8318 125.598C97.1498 123.305 97.8252 122.148 98.6074 121.649C98.969 121.419 99.5573 121.113 100.026 120.415C100.44 119.797 100.42 119.381 100.704 118.625C101 117.838 101.252 117.679 102.123 116.405C103.646 114.181 103.828 113.274 104.343 113.32C104.892 113.37 104.788 114.408 105.978 115.202C106.249 115.383 106.676 115.61 107.243 115.912C107.902 116.262 107.846 116.204 108.124 116.369C108.982 116.875 109.002 117.13 109.689 117.471C110.329 117.79 110.55 117.687 110.635 117.886C110.837 118.354 109.675 119.056 108.415 120.446C107.143 121.848 107.5 122.045 106.195 123.562C104.703 125.295 103.616 125.757 103.789 126.4C103.906 126.834 104.417 126.684 105.702 127.448C107.005 128.222 107.317 128.871 108.293 128.929C108.468 128.939 109.12 128.978 109.342 128.62C109.567 128.255 109.299 127.557 108.606 126.919C107.814 126.176 107.694 125.627 107.738 125.258C107.901 123.904 110.461 123.261 112.612 121.466C113.051 121.1 113.496 120.666 113.692 120.476C114.412 119.774 114.771 119.424 114.864 119.149C115.076 118.52 114.66 118.006 113.692 116.374C112.285 114.002 112.556 114.066 111.902 113.258C111.728 113.043 111.58 112.936 111.056 112.379C110.574 111.868 110.164 111.43 109.713 110.883C109.401 110.52 109.111 110.138 108.844 109.741C108.336 108.941 108.265 108.267 108.049 106.753C107.567 103.404 107.375 102.995 107.766 102.358C108.14 101.796 108.69 101.373 109.329 101.156Z" fill="#ECEEE0" stroke="#ECEEE0" stroke-width="0.821678" stroke-miterlimit="10"/>
<path d="M95.4356 98.6345C95.2384 98.2007 95.2483 98.112 95.1365 98.0364C94.9048 97.8819 94.7043 98.1547 94.2393 98.1218C93.7561 98.0873 93.6854 97.7718 93.2138 97.7373C92.8818 97.7126 92.6288 97.849 92.3593 97.9936C92.1292 98.1169 91.5113 98.4489 91.2911 99.1473C91.1953 99.4969 91.1953 99.8658 91.2911 100.215C91.3716 100.626 91.4866 101.201 91.932 101.497C92.3297 101.762 92.7307 101.632 92.872 101.925C92.964 102.114 92.821 102.22 92.9147 102.437C93.038 102.722 93.4357 102.891 93.7693 102.865C94.2162 102.828 94.4233 102.45 94.5383 102.523C94.6764 102.61 94.374 103.15 94.2393 103.89C94.1259 104.511 94.1817 104.98 94.282 105.813C94.3116 106.058 94.3083 105.962 94.6238 107.65C94.6616 107.852 94.7668 108.419 94.8802 109.145C94.987 109.832 95.0396 110.179 95.0083 110.342C94.913 110.835 94.6419 110.948 93.9402 111.837C93.3716 112.557 93.0889 112.915 93.0002 113.29C92.8999 113.714 92.9624 114.186 93.0856 115.127C93.1629 115.719 93.1957 115.698 93.2138 115.982C93.2631 116.776 93.0396 117.375 92.8293 117.947C92.4661 118.938 91.7726 120.67 91.9451 120.767C92.0306 120.815 92.2804 120.435 93.7824 118.445C94.3477 117.696 94.5909 117.38 94.8374 116.836C95.0672 116.316 95.2391 115.771 95.3502 115.213C95.5178 114.327 95.4258 114.329 95.6065 113.845C95.8728 113.136 96.1603 113.091 96.3888 112.393C96.5186 112.008 96.5722 111.602 96.5465 111.196C96.4759 110.215 95.9221 110.033 96.0338 109.274C96.07 109.03 96.1866 108.769 96.4183 108.248C96.5626 107.907 96.734 107.579 96.9311 107.265C97.171 106.887 97.2548 106.848 97.4865 106.454C97.7067 106.079 97.8168 105.892 97.8283 105.685C97.8497 105.275 97.5687 105.226 97.4438 104.702C97.3008 104.104 97.6049 103.91 97.4011 103.42C97.3123 103.206 97.2565 103.251 96.8883 102.779C96.6408 102.451 96.4125 102.108 96.2047 101.754C95.8185 101.131 95.6246 100.82 95.6065 100.728C95.4783 100.063 95.9336 99.7471 95.692 99.1473C95.6345 99.0043 95.5901 98.9764 95.4356 98.6345Z" fill="#ECEEE0" stroke="#ECEEE0" stroke-width="0.821678" stroke-miterlimit="10"/>
<path d="M145.532 125.653C145.415 125.285 145.302 124.702 145.078 123.533C144.924 122.731 144.919 122.6 144.986 122.562C145.269 122.399 146.565 124.056 147.484 125.431C148.92 127.579 148.753 128.016 149.798 129.595C151.66 132.409 153.704 133.306 153.407 133.899C153.191 134.327 152.14 133.839 149.52 133.853C147.27 133.867 146.039 134.238 145.819 133.761C145.634 133.362 146.424 132.951 147.022 131.541C147.28 130.933 147.655 130.047 147.512 129.07C147.297 127.597 146.159 127.627 145.532 125.656V125.653Z" fill="#ECEEE0" stroke="#ECEEE0" stroke-width="0.821678" stroke-miterlimit="10"/>
<path d="M90.2028 125.653C90.3195 125.285 90.4329 124.702 90.6564 123.533C90.8109 122.731 90.8158 122.6 90.7484 122.562C90.4657 122.399 89.1691 124.056 88.2505 125.431C86.8142 127.579 86.9818 128.016 85.9367 129.595C84.0747 132.409 82.0304 133.306 82.3278 133.899C82.5431 134.327 83.5949 133.839 86.2144 133.853C88.4641 133.867 89.695 134.238 89.9152 133.761C90.1009 133.362 89.3105 132.951 88.7123 131.541C88.4543 130.933 88.0796 130.047 88.2226 129.07C88.4378 127.597 89.575 127.627 90.2028 125.656V125.653Z" fill="#ECEEE0" stroke="#ECEEE0" stroke-width="0.821678" stroke-miterlimit="10"/>
</g>
</svg>
